<?xml version="1.0" encoding="utf-8"?>
<!-- Generator: Adobe Illustrator 24.0.3, SVG Export Plug-In . SVG Version: 6.00 Build 0)  -->
<svg version="1.1" id="Layer_1" xmlns="http://www.w3.org/2000/svg" xmlns:xlink="http://www.w3.org/1999/xlink" x="0px" y="0px"
	 viewBox="0 0 100 100" style="enable-background:new 0 0 100 100;" xml:space="preserve">
<style type="text/css">
	.st0{fill:#F07F46;}
	.st1{fill:#DEDD0B;}
	.st2{fill:#003F36;}
</style>
<path class="st0" d="M33.7,45.1c0.3,0,0.5,0,0.7,0c0.5,0,0.7,0.2,0.7,0.7c0,0.1,0,0.2,0,0.2c0,9.9,0,19.7,0,29.6
	c0,0.8-0.1,0.9-0.9,0.9c-0.3,0-0.6,0-0.9,0c-0.4,0-0.6-0.2-0.6-0.6c0-0.1,0-0.2,0-0.4c0-12.1,0-24.2,0-36.2c0-0.2,0-0.3,0-0.5
	c0-0.3,0.2-0.5,0.5-0.5c0.3,0,0.5,0.1,0.6,0.4c0,0.2,0,0.3,0,0.5c0,1.8,0,3.6,0,5.4C33.7,44.8,33.7,44.9,33.7,45.1z"/>
<path class="st0" d="M79.2,55.1c-2.7,0.8-4.1,2.5-3.8,4.9c0.2,1.7,1.7,3.9,4.9,3.8c0,2.6,0.3,5.1-1.4,7.4c-1.3,1.8-3.1,2.7-5.4,3
	c0-0.9,0.1-1.8,0.1-2.6c0.1-1.6,0.1-1.6-1.5-1.6c-1.6,0-3.1,0-4.7,0c-1,0-1.2,0.2-1.1,1.2c0.1,1,0.1,2,0.2,3c-1.2-0.1-2.3-0.4-3.3-1
	c-2.1-1.3-3.3-3.2-3.4-5.7c-0.1-1.2,0-2.3,0-3.6c1.4,0.1,2.6-0.3,3.6-1.2c0.8-0.8,1.2-1.7,1.3-2.8c0.1-1.8-0.9-4.1-3.7-4.6
	c0-1.8-0.2-3.5,0-5.3c0.3-2.4,2.5-4.1,5.1-4.2c0.4,0,0.7,0,1.1,0c0,0.9-0.1,1.7-0.1,2.6c-0.2,3-0.4,6-0.7,9.1c0,0.6,0.2,1,0.9,1
	c1.9,0,3.7,0,5.6,0c0.7,0,0.9-0.3,0.9-1c-0.1-1.4-0.3-2.9-0.4-4.3c-0.2-2.3-0.3-4.6-0.4-6.9c0-0.1,0-0.2,0-0.4
	c2.9-0.4,5.4,1.1,6.1,4c0.1,0.3,0.1,0.7,0.1,1C79.2,52.2,79.2,53.7,79.2,55.1z M70,63.3c0.9,0,1.9,0,2.8,0c0.6,0,0.9-0.3,0.9-0.7
	c0-0.5-0.3-0.8-0.9-0.8c-1.9,0-3.7,0-5.6,0c-0.6,0-0.9,0.3-0.9,0.8c0,0.4,0.4,0.7,0.9,0.7C68.1,63.4,69.1,63.3,70,63.3z"/>
<path class="st0" d="M69.4,33.4c0.4,0,0.9,0,1.4,0c0.4,7.8,0.9,15.6,1.3,23.4c-1.3,0-2.7,0-4,0C68.5,49,68.9,41.2,69.4,33.4z"/>
<path class="st0" d="M71.9,77.4c-1.2,0-2.4,0-3.7,0c-0.1-1.9-0.2-3.9-0.3-5.9c1.4,0,2.8,0,4.3,0C72.1,73.4,72,75.4,71.9,77.4z"/>
<path class="st0" d="M71.4,31.8c-1,0-1.9,0-2.8,0c0-1.7,0-3.3,0-5c0.9,0,1.9,0,2.8,0C71.4,28.4,71.4,30.1,71.4,31.8z"/>
<g>
	<path class="st1" d="M-48.5,59.4c0,0-0.1,0.1-0.1,0.1c-0.3,0.9-0.9,1.4-1.9,1.4c-0.2,0-0.4,0-0.5,0c0-2.1,0-4.1,0-6.2
		c0.4,0,0.8,0.1,1.2,0.1c0.1-3.5-1.2-6.4-4.1-8.4c-3.2-2.1-6.7-2.3-10-0.3c-3.3,1.9-4.7,4.9-4.6,8.7c0.4,0,0.8-0.1,1.2-0.1
		c0,2.1,0,4.2,0,6.2c-0.8,0.1-1.6,0-2.1-0.7c-0.3-0.3-0.4-0.7-0.4-1.2c0-1.7,0-3.5,0-5.2c0.1-3.1,1.3-5.6,3.6-7.6
		c1.6-1.4,3.5-2.3,5.6-2.5c3.1-0.4,5.9,0.4,8.3,2.4c1.8,1.5,3,3.5,3.5,5.9c0.1,0.4,0.1,0.9,0.2,1.3c0,0,0,0.1,0,0.1
		C-48.5,55.3-48.5,57.4-48.5,59.4z"/>
	<path class="st1" d="M-63.6,57.8c0,1.2,0,2.4,0,3.6c0,0.5-0.2,0.8-0.7,0.7c-0.3,0-0.7,0-1-0.1c-0.5-0.2-0.7-0.6-0.7-1.2
		c0-1.6,0-3.1,0-4.7c0-0.5,0-0.9,0-1.4c0-0.8,0.5-1.3,1.3-1.3c0.2,0,0.3,0,0.5,0c0.4,0,0.7,0.3,0.7,0.7
		C-63.6,55.3-63.6,56.6-63.6,57.8z"/>
	<path class="st1" d="M-54.8,57.8c0-1.2,0-2.4,0-3.6c0-0.5,0.2-0.7,0.7-0.7c0.2,0,0.3,0,0.5,0c0.7,0,1.2,0.5,1.2,1.2
		c0,2.1,0,4.2,0,6.2c0,0.7-0.5,1.2-1.2,1.2c-0.2,0-0.4,0-0.6,0c-0.4,0-0.7-0.3-0.7-0.7C-54.8,60.2-54.8,59-54.8,57.8z"/>
</g>
<g>
	<path class="st2" d="M66.9,30.6c-1.5-1.5-8.1,4.1-12.3,8c-0.2,0.2-2.6,2.5-4.2,2.5s-4-2.3-4.2-2.5c-4.2-3.9-10.8-9.5-12.3-8
		c-2.1,2.1,9,13.5,11,15.5c-1.8,13-1.8,30.5-1.8,30.5h7.3h7.3c0,0,0-17.6-1.8-30.5C57.9,44.1,69,32.7,66.9,30.6z"/>
</g>
<circle class="st2" cx="50.3" cy="30.8" r="5.9"/>
<g>
	<g>
		<g>
			<path class="st0" d="M-93.8,68.3l-1.3-1.7c-0.4-0.5-1.1-0.6-1.5-0.2l-4,3.1c-0.5,0.4-0.6,1.1-0.2,1.5l1.3,1.7
				c0.4,0.5,1.1,0.6,1.5,0.2l4-3.1C-93.5,69.5-93.4,68.8-93.8,68.3z"/>
		</g>
	</g>
	<g>
		<g>
			
				<rect x="-98.1" y="64.9" transform="matrix(0.791 -0.6118 0.6118 0.791 -60.3805 -45.9266)" class="st0" width="1.5" height="1.1"/>
		</g>
	</g>
	<g>
		<g>
			
				<rect x="-100.2" y="66.4" transform="matrix(0.791 -0.6118 0.6118 0.791 -61.7575 -46.8351)" class="st0" width="1.5" height="1.1"/>
		</g>
	</g>
	<g>
		<g>
			
				<rect x="-102.2" y="68" transform="matrix(0.791 -0.6118 0.6118 0.791 -63.1371 -47.7454)" class="st0" width="1.5" height="1.1"/>
		</g>
	</g>
	<g>
		<g>
			
				<rect x="-93.9" y="70.3" transform="matrix(0.791 -0.6118 0.6118 0.791 -62.849 -42.1854)" class="st0" width="1.5" height="1.1"/>
		</g>
	</g>
	<g>
		<g>
			
				<rect x="-95.9" y="71.9" transform="matrix(0.791 -0.6118 0.6118 0.791 -64.2259 -43.0939)" class="st0" width="1.5" height="1.1"/>
		</g>
	</g>
	<g>
		<g>
			
				<rect x="-97.9" y="73.5" transform="matrix(0.791 -0.6118 0.6118 0.791 -65.6056 -44.0042)" class="st0" width="1.5" height="1.1"/>
		</g>
	</g>
	<g>
		<g>
			<path class="st0" d="M-111.7,90.5c0.4-1.7,1.9-2.8,3.5-3.4c0.6-0.2,1-0.5,1.5-0.8c2.3-1.8,2.5-3.9,1.1-6.5l-1.2,1
				c-0.8,0.6-1.9,0.5-2.6-0.3l-1.3-1.7c-0.6-0.8-0.5-1.9,0.3-2.6l1.3-0.9c-2.2-1.9-4.3-2.3-6.5-0.5c-0.5,0.4-0.8,0.7-1.2,1.3
				c-1,1.4-2.4,2.6-4.2,2.6c-1.8-0.1-4,0.2-5.4,1.3c-4.3,3.3-4.1,7.9-0.3,12.7c3.7,4.9,8,6.2,12.4,2.9
				C-112.9,94.3-112.1,92.2-111.7,90.5z M-118,89.4l-3.6-4.6l1.2-0.9l3.6,4.6L-118,89.4z M-116,84.2c-1-1.3-0.8-3.1,0.5-4.1
				c1.3-1,3.1-0.8,4.1,0.5c1,1.3,0.8,3.1-0.5,4.1C-113.1,85.7-115,85.5-116,84.2z"/>
		</g>
	</g>
	<g>
		<g>
			<path class="st0" d="M-100.5,74.5c0.5-0.4,0.5-1,0.2-1.5l-0.9-1.2c-0.4-0.5-1-0.6-1.5-0.2l-7.1,5.1c-0.5,0.4-0.6,1.1-0.2,1.5
				l1.3,1.7c0.4,0.5,1.1,0.6,1.5,0.2L-100.5,74.5z"/>
		</g>
	</g>
</g>
<g>
	<g>
		<g>
			<path class="st0" d="M-73.8,98.6c-1.2-0.9-2.4-2-3.3-3.3l-0.8-1.2c-0.2-0.2-0.5-0.4-0.7-0.3c-0.3,0.1-0.5,0.3-0.5,0.6V105
				c-0.4-0.2-0.8-0.4-1.3-0.4c-1.5,0-2.7,1.2-2.7,2.7s1.2,2.7,2.7,2.7s2.7-1.2,2.7-2.7V96.7c0.9,1.2,2.1,2.2,3.2,3
				c0.5,0.4,0.8,1,0.8,1.6c0,1.1-0.9,2-2,2c-0.4,0-0.7,0.3-0.7,0.7c0,0.4,0.3,0.7,0.7,0.7c1.8,0,3.3-1.5,3.3-3.3
				C-72.5,100.2-73,99.2-73.8,98.6z"/>
		</g>
	</g>
	<g>
		<g>
			<path class="st0" d="M-61.2,99.3l-9.4,2.7c-0.3,0.1-0.5,0.3-0.5,0.6v9c-0.4-0.2-0.8-0.4-1.3-0.4c-1.5,0-2.7,1.2-2.7,2.7
				s1.2,2.7,2.7,2.7s2.7-1.2,2.7-2.7c0-0.2,0-8.2,0-8.2l8.1-2.3v5.5c-0.4-0.2-0.8-0.4-1.3-0.4c-1.5,0-2.7,1.2-2.7,2.7
				c0,1.5,1.2,2.7,2.7,2.7c1.5,0,2.7-1.2,2.7-2.7c0-0.2,0-11.3,0-11.3C-60.4,99.5-60.8,99.2-61.2,99.3z"/>
		</g>
	</g>
</g>
<g>
	<path class="st0" d="M14.6,142.7c-0.2,0-0.5,0-0.7,0c-0.2,0-0.3,0.1-0.3,0.3c0,0.2,0.1,0.3,0.3,0.3c0.2,0,0.4,0,0.6,0
		c0,1.1,0,2.3,0,3.4c-0.2,0-0.4,0-0.6,0c-0.4,0-0.4,0.1-0.4,0.4c0.1,2.1,0.2,4.3,0.3,6.4c0,0.2,0,0.4,0,0.6c-2,0-3.8-0.9-4.6-2.7
		c-0.4-0.9-0.6-1.9-0.7-2.9c0-0.1,0-0.2,0.1-0.3c0.4-0.6,0.5-1.3,0.1-1.9c0-0.1,0-0.2,0-0.3c0.1,0,0.2,0,0.2,0.1
		c0.4,0.3,0.8,0.4,1.2,0c0.2-0.3,0.5-0.6,0.6-1c0.3-1,0.4-2.1,0.2-3.1c-0.1-0.4-0.2-0.8-0.5-1.1c-0.3-0.3-0.6-0.3-1-0.1
		c-0.1,0-0.2,0-0.3,0c0-0.1,0-0.2,0.1-0.3c0.5-0.5,0.7-1.2,0.4-1.9c0-0.1-0.1-0.3-0.1-0.4c0.1-1.8,1.4-3.2,3.2-3.7
		c0.2-0.1,0.4-0.1,0.7-0.2c0,0.2,0,0.3-0.1,0.4c0,1.5-0.1,3.1-0.1,4.6c0,0.4,0,0.4,0.4,0.4c0.2,0,0.4,0,0.6,0c0,0,0,0,0,0
		C14.6,140.7,14.6,141.7,14.6,142.7z M10.9,147.1c0.4,0.3,0.8,0.3,1.1-0.1c0.1-0.1,0.1-0.3,0.2-0.5c0.1-0.6,0.2-1.2,0.3-1.8
		c0-0.1,0.1-0.2,0.2-0.3c0.1,0.1,0.1,0.2,0.2,0.2c0.1,0.1,0.2,0.2,0.3,0.2c0.1,0,0.2-0.2,0.2-0.3c0-0.3-0.1-0.5-0.4-0.6
		c-0.5-0.2-0.9,0-1,0.6c-0.1,0.7-0.2,1.3-0.3,2c0,0.1-0.1,0.2-0.2,0.3c-0.1-0.1-0.1-0.2-0.2-0.2c-0.1-0.1-0.2-0.2-0.3-0.2
		c-0.1,0-0.2,0.2-0.2,0.3C10.7,146.8,10.8,146.9,10.9,147.1z"/>
	<path class="st0" d="M15.2,146.6c0-1.1,0-2.3,0-3.4c0.2,0,0.4,0,0.6,0c0.2,0,0.3-0.1,0.3-0.3c0-0.2-0.1-0.3-0.3-0.3
		c-0.2,0-0.4,0-0.6,0c0-1,0-2,0-3c0.2,0,0.4,0,0.5,0c0.5,0,0.5,0,0.5-0.5c0-1.6-0.1-3.1-0.1-4.7c0-0.1,0-0.2,0-0.3
		c1.9,0.2,3.7,1.6,3.9,3.8c0,0.2,0,0.4-0.1,0.5c-0.2,0.7-0.1,1.3,0.4,1.8c0.1,0.1,0.1,0.2,0.1,0.3c-0.1,0-0.2,0-0.3,0
		c-0.4-0.3-0.9-0.2-1.1,0.3c-0.2,0.3-0.3,0.7-0.3,1.1c-0.1,1-0.1,2,0.3,3c0.1,0.4,0.3,0.8,0.7,1c0.4,0.2,0.7,0.2,1-0.1
		c0.1-0.1,0.2-0.1,0.2-0.1c0,0.1,0,0.2,0,0.3c-0.4,0.7-0.3,1.3,0.1,2c0,0.1,0.1,0.1,0.1,0.2c0,1.7-0.5,3.3-1.7,4.5
		c-1,0.9-2.2,1.2-3.5,1.3c0.1-2,0.2-3.9,0.3-5.9c0-0.4,0-0.8,0.1-1.1c0-0.3-0.1-0.4-0.4-0.4C15.7,146.6,15.4,146.6,15.2,146.6z
		 M17.7,144c-0.3-0.2-0.5-0.3-0.8-0.2c-0.3,0.1-0.5,0.3-0.5,0.6c0,0.1,0.1,0.3,0.2,0.3c0.1,0,0.2-0.1,0.3-0.2
		c0.1-0.1,0.1-0.2,0.2-0.2c0.1,0.1,0.2,0.2,0.2,0.3c0.1,0.6,0.2,1.1,0.3,1.7c0,0.2,0.1,0.3,0.1,0.5c0.1,0.3,0.4,0.5,0.7,0.4
		c0.3,0,0.5-0.3,0.6-0.6c0-0.2,0-0.3-0.2-0.4c-0.2,0-0.3,0-0.3,0.2c0,0.1-0.1,0.1-0.2,0.2c-0.1-0.1-0.1-0.1-0.2-0.2c0,0,0-0.1,0-0.1
		c-0.1-0.6-0.2-1.2-0.3-1.8C17.8,144.4,17.8,144.2,17.7,144z"/>
	<path class="st0" d="M15.7,139.1c-0.5,0-1.1,0-1.6,0c0-0.8,0-1.6,0.1-2.4c0.1-3.7,0.2-7.3,0.3-11c0-0.5-0.1-1-0.2-1.4
		c-0.1-0.7-0.2-1.5-0.3-2.2c0.6,0,1.3,0,1.9,0c0,0.3-0.1,0.7-0.2,1c-0.3,1.7-0.4,3.3-0.3,5c0.1,3.6,0.2,7.3,0.3,10.9
		C15.7,139,15.7,139.1,15.7,139.1z"/>
	<path class="st0" d="M14.1,147.2c0.5,0,1,0,1.6,0c-0.1,2.3-0.2,4.6-0.3,6.8c-0.3,0-0.6,0-0.9,0C14.4,151.7,14.2,149.5,14.1,147.2z"
		/>
	<path class="st0" d="M17.3,123.8c-0.5,0-0.9,0-1.4,0c0-0.2,0-0.4,0-0.6c0.4,0,0.9,0,1.3,0c0-0.1,0-0.2,0-0.2
		c0.1-0.1,0.2-0.2,0.3-0.2c0.1,0,0.2,0.1,0.2,0.2c0,0.3,0,0.6,0,0.9c0,0.1-0.2,0.2-0.2,0.2c-0.1,0-0.2-0.1-0.3-0.2
		C17.3,124,17.3,123.9,17.3,123.8z"/>
	<path class="st0" d="M12.5,123.3c0.5,0,0.9,0,1.3,0c0,0.2,0,0.4,0,0.6c-0.4,0-0.9,0-1.3,0c0,0.1,0,0.2,0,0.2
		c-0.1,0.1-0.2,0.2-0.3,0.2c-0.1,0-0.2-0.1-0.2-0.2c0-0.3,0-0.6,0-0.9c0-0.1,0.2-0.2,0.2-0.2c0.1,0,0.2,0.1,0.3,0.2
		C12.5,123.1,12.5,123.2,12.5,123.3z"/>
</g>
<g>
	<path class="st0" d="M-67.8,111.8c0-0.1,0.1-0.2,0.1-0.2c0.1-0.3,0.3-0.6,0.5-0.9c2.6-2.7,5.2-5.5,7.7-8.2c0,0,0,0,0.1-0.1
		c0.2,0.7,0.6,1.4,1.1,2c-0.7,0.7-1.3,1.3-2,2c-0.2,0.2-0.2,0.3-0.2,0.6c0.1,0.4,0.6,0.6,0.9,0.3c0.4-0.3,0.7-0.7,1.1-1
		c0.3-0.3,0.7-0.7,1-1c0.6,0.5,1.3,0.8,2,1.1c-0.1,0.1-0.2,0.2-0.3,0.3c-2.6,2.5-5.2,4.9-7.9,7.4c-0.4,0.4-0.8,0.6-1.3,0.7
		c0,0,0,0,0,0c-0.2,0-0.4,0-0.7,0c-0.1,0-0.2-0.1-0.3-0.1c-0.8-0.4-1.5-1-1.7-1.9c0,0,0-0.1-0.1-0.1
		C-67.8,112.3-67.8,112-67.8,111.8z"/>
	<path class="st0" d="M-57.6,97.9c2.2,2.2,4.3,4.3,6.5,6.5c-1.6,1.3-4.2,1.4-6-0.3C-58.9,102.4-59,99.7-57.6,97.9z"/>
	<path class="st0" d="M-50.3,103.6c-2.2-2.2-4.3-4.3-6.5-6.5c1.5-1.3,4.2-1.5,6.1,0.3C-48.9,99.2-49,102-50.3,103.6z"/>
</g>
<g>
	<path class="st1" d="M-77.9,136.5c0,6.6,0,13.2,0,19.8c-0.1,0.3-0.1,0.5-0.2,0.8c-0.6,2-1.8,3.5-3.8,4.3c-1.2,0.5-2.5,0.5-3.8,0.4
		c-0.9-0.1-1.8-0.3-2.6-0.7c-1.2-0.6-2.1-1.6-2.8-2.8c-0.8-1.3-1.3-2.7-1.9-4.1c-0.6-1.5-1.4-3-2.4-4.3c-0.6-0.8-1.4-1.3-2.3-1.6
		c-1.1-0.3-2.1-0.4-3.2-0.5c-1.5-0.1-2.7-0.8-3.5-2.1c-0.8-1.3-1-2.7-1.2-4.1c-0.1-1.5,0-3,0.2-4.5c0.1-1,0.9-1.8,2-1.8
		c7.9,0,15.9,0,23.8,0C-78.8,135.4-78.2,135.7-77.9,136.5C-77.9,136.5-77.9,136.5-77.9,136.5z M-79.1,136.8c-8.2,0-16.4,0-24.6,0
		c0,1.8,0,3.6,0,5.4c0.7,0,1.4,0,2.2,0c0-1.3,0-2.6,0-3.9c0.5,0,1,0,1.5,0c0,1.3,0,2.6,0,3.9c0.4,0,0.8,0,1.3,0c0-1.3,0-2.6,0-3.9
		c0.5,0,1,0,1.5,0c0,1.3,0,2.6,0,3.9c0.4,0,0.8,0,1.2,0c0-1.3,0-2.6,0-3.9c0.5,0,1,0,1.5,0c0,1.3,0,2.6,0,3.9c0.4,0,0.8,0,1.3,0
		c0-1.3,0-2.6,0-3.9c0.5,0,1,0,1.5,0c0,1.3,0,2.6,0,3.9c0.4,0,0.8,0,1.2,0c0-1.3,0-2.6,0-3.9c0.5,0,1,0,1.5,0c0,1.3,0,2.6,0,3.9
		c0.4,0,0.8,0,1.3,0c0-1.3,0-2.6,0-3.9c0.5,0,1,0,1.5,0c0,1.3,0,2.6,0,3.9c0.4,0,0.8,0,1.2,0c0-1.3,0-2.6,0-3.9c0.5,0,1,0,1.5,0
		c0,1.3,0,2.6,0,3.9c0.4,0,0.8,0,1.3,0c0-1.3,0-2.6,0-3.9c0.5,0,1,0,1.5,0c0,1.3,0,2.6,0,3.9c0.5,0,0.9,0,1.4,0
		C-79.1,140.4-79.1,138.6-79.1,136.8z"/>
</g>
</svg>
