<?xml version="1.0" encoding="utf-8"?>
<!-- Generator: Adobe Illustrator 16.0.0, SVG Export Plug-In . SVG Version: 6.00 Build 0)  -->
<!DOCTYPE svg PUBLIC "-//W3C//DTD SVG 1.1//EN" "http://www.w3.org/Graphics/SVG/1.1/DTD/svg11.dtd">
<svg version="1.1" id="Layer_1" xmlns="http://www.w3.org/2000/svg" xmlns:xlink="http://www.w3.org/1999/xlink" x="0px" y="0px"
	 width="612px" height="792px" viewBox="0 0 612 792" enable-background="new 0 0 612 792" xml:space="preserve">
<g>
	<path fill="#DEDD0B" d="M-296.82,453.528l-0.612,0.611c-1.836,5.509-5.508,8.568-11.628,8.568c-1.224,0-2.448,0-3.06,0
		c0-12.852,0-25.092,0-37.944c2.448,0,4.896,0.612,7.344,0.612c0.612-21.42-7.344-39.168-25.092-51.408
		c-19.584-12.852-41.004-14.076-61.2-1.836c-20.196,11.628-28.764,29.988-28.152,53.244c2.448,0,4.896-0.612,7.344-0.612
		c0,12.853,0,25.704,0,37.944c-4.896,0.612-9.792,0-12.852-4.284c-1.836-1.836-2.448-4.284-2.448-7.344c0-10.404,0-21.42,0-31.824
		c0.612-18.972,7.956-34.272,22.032-46.512c9.792-8.568,21.42-14.076,34.272-15.3c18.972-2.448,36.108,2.448,50.796,14.688
		c11.016,9.18,18.36,21.42,21.42,36.108c0.612,2.448,0.612,5.508,1.224,7.956v0.611C-296.82,428.436-296.82,441.288-296.82,453.528z
		"/>
	<path fill="#DEDD0B" d="M-389.232,443.736c0,7.344,0,14.688,0,22.031c0,3.061-1.224,4.896-4.284,4.284c-1.836,0-4.284,0-6.12-0.611
		c-3.06-1.225-4.284-3.673-4.284-7.345c0-9.792,0-18.972,0-28.764c0-3.061,0-5.508,0-8.568c0-4.896,3.06-7.956,7.956-7.956
		c1.224,0,1.836,0,3.06,0c2.448,0,4.284,1.836,4.284,4.284C-389.232,428.436-389.232,436.392-389.232,443.736z"/>
	<path fill="#DEDD0B" d="M-335.376,443.736c0-7.345,0-14.688,0-22.032c0-3.061,1.224-4.284,4.284-4.284c1.224,0,1.836,0,3.06,0
		c4.284,0,7.344,3.061,7.344,7.344c0,12.853,0,25.704,0,37.944c0,4.284-3.06,7.344-7.344,7.344c-1.224,0-2.448,0-3.672,0
		c-2.448,0-4.284-1.836-4.284-4.284C-335.376,458.424-335.376,451.08-335.376,443.736z"/>
</g>
<g>
	<path fill="#003F36" d="M409.428,275.436c-9.18-9.18-49.571,25.092-75.275,48.96c-1.225,1.224-15.912,15.3-25.704,15.3
		c-9.792,0-24.48-14.076-25.704-15.3c-25.704-23.868-66.096-58.14-75.276-48.96c-12.852,12.852,55.08,82.62,67.32,94.86
		c-11.016,79.561-11.016,186.66-11.016,186.66h44.676h44.676c0,0,0-107.712-11.016-186.66
		C354.348,358.056,422.28,288.288,409.428,275.436z"/>
</g>
<circle fill="#003F36" cx="307.836" cy="278.496" r="36.108"/>
<g>
	<g>
		<g>
			<path fill="#F07F46" d="M389.709,303.496l-10.49-7.842c-3.189-2.276-7.477-1.698-9.164,1.324l-18.383,24.926
				c-2.277,3.189-1.699,7.479,1.323,9.166l10.49,7.843c3.19,2.276,7.479,1.697,9.167-1.325l18.382-24.926
				C393.478,310.062,392.899,305.773,389.709,303.496z"/>
		</g>
	</g>
	<g>
		<g>
			
				<rect x="358.665" y="288.916" transform="matrix(-0.5944 0.8042 -0.8042 -0.5944 814.2125 173.8686)" fill="#F07F46" width="9.181" height="6.732"/>
		</g>
	</g>
	<g>
		<g>
			
				<rect x="349.643" y="301.527" transform="matrix(-0.5943 0.8043 -0.8043 -0.5943 809.9612 201.1913)" fill="#F07F46" width="9.181" height="6.733"/>
		</g>
	</g>
	<g>
		<g>
			
				<rect x="340.109" y="313.767" transform="matrix(-0.5944 0.8042 -0.8042 -0.5944 804.6177 228.4425)" fill="#F07F46" width="9.181" height="6.732"/>
		</g>
	</g>
	<g>
		<g>
			
				<rect x="393.081" y="313.903" transform="matrix(-0.5943 0.8042 -0.8042 -0.5943 889.1746 186.0184)" fill="#F07F46" width="9.18" height="6.732"/>
		</g>
	</g>
	<g>
		<g>
			
				<rect x="383.694" y="327.008" transform="matrix(-0.5945 0.8041 -0.8041 -0.5945 884.7636 214.533)" fill="#F07F46" width="9.18" height="6.73"/>
		</g>
	</g>
	<g>
		<g>
			
				<rect x="374.161" y="339.247" transform="matrix(-0.5943 0.8043 -0.8043 -0.5943 879.3859 241.6097)" fill="#F07F46" width="9.181" height="6.732"/>
		</g>
	</g>
	<g>
		<g>
			<path fill="#F07F46" d="M321.172,463.485c-0.48-10.678,6.518-19.656,14.938-25.858c3.201-2.179,5.055-4.612,7.5-7.213
				c10.54-14.435,8.215-27.134-4.367-40.109l-5.396,7.891c-3.71,4.866-10.354,6.114-15.811,2.57l-10.49-7.842
				c-4.868-3.71-6.114-10.354-2.571-15.811l6.153-7.467c-16.122-7.519-29.155-6.371-39.107,7.897
				c-2.276,3.189-3.542,5.457-4.897,9.656c-3.554,9.912-9.795,19.313-20.395,22.316c-10.766,2.413-23.219,7.849-29.628,16.661
				c-19.815,26.604-10.965,53.356,19.417,75.283c29.96,22.681,57.448,23.162,77.852-3.608
				C320.445,487.862,321.82,474.752,321.172,463.485z M282.409,468.105l-28.872-21.082l5.566-7.301l28.87,21.083L282.409,468.105z
				 M285.511,434.15c-8.056-5.987-9.881-16.919-3.895-24.976c5.987-8.058,16.92-9.882,24.976-3.896
				c8.057,5.987,9.883,16.919,3.895,24.977C304.5,438.312,293.568,440.137,285.511,434.15z"/>
		</g>
	</g>
	<g>
		<g>
			<path fill="#F07F46" d="M360.6,351.18c2.277-3.19,1.275-6.723-1.324-9.166l-8.057-5.987c-3.189-2.275-6.889-1.864-9.165,1.325
				l-33.302,41.873c-2.276,3.19-1.697,7.479,1.324,9.165l10.492,7.843c3.189,2.276,7.477,1.698,9.166-1.325L360.6,351.18z"/>
		</g>
	</g>
</g>
<g>
	<g>
		<g>
			<path fill="#F07F46" d="M-451.656,693.432c-7.344-5.508-14.688-12.239-20.196-20.195l-4.896-7.345
				c-1.224-1.224-3.06-2.447-4.284-1.836c-1.836,0.612-3.06,1.836-3.06,3.672V732.6c-2.448-1.224-4.896-2.447-7.956-2.447
				c-9.18,0-16.524,7.344-16.524,16.523s7.344,16.524,16.524,16.524c9.18,0,16.524-7.345,16.524-16.524v-64.872
				c5.508,7.345,12.852,13.464,19.584,18.36c3.06,2.448,4.896,6.12,4.896,9.792c0,6.731-5.508,12.24-12.24,12.24
				c-2.448,0-4.284,1.836-4.284,4.283c0,2.448,1.836,4.284,4.284,4.284c11.016,0,20.196-9.18,20.196-20.195
				C-443.7,703.224-446.76,697.104-451.656,693.432z"/>
		</g>
	</g>
	<g>
		<g>
			<path fill="#F07F46" d="M-374.544,697.716l-57.528,16.524c-1.836,0.611-3.06,1.836-3.06,3.672v55.08
				c-2.448-1.225-4.896-2.448-7.956-2.448c-9.18,0-16.524,7.344-16.524,16.524c0,9.18,7.344,16.523,16.524,16.523
				c9.18,0,16.524-7.344,16.524-16.523c0-1.225,0-50.185,0-50.185l49.572-14.076v33.66c-2.448-1.224-4.896-2.448-7.956-2.448
				c-9.18,0-16.524,7.345-16.524,16.524s7.344,16.524,16.524,16.524c9.18,0,16.524-7.345,16.524-16.524c0-1.224,0-69.156,0-69.156
				C-369.648,698.94-372.096,697.104-374.544,697.716z"/>
		</g>
	</g>
</g>
<g>
	<path fill="#DEDD0B" d="M-1261.944,862.956c-1.224,1.224-3.06,2.448-4.284,3.672s-1.224,1.836,0,3.06
		c1.224,1.225,2.448,1.225,3.06,0c1.224-1.224,2.448-2.447,3.672-3.672c6.732,6.732,13.464,13.465,20.196,20.196
		c-1.224,1.224-2.448,2.448-3.672,3.672c-1.836,1.836-1.836,3.061,0,4.896c12.852,11.628,26.316,23.868,39.168,35.496
		c1.224,1.224,2.448,2.447,3.672,3.06c-11.628,11.628-27.54,16.524-42.84,11.017c-7.956-3.061-14.688-7.345-20.808-12.853
		c-0.612-0.612-1.224-1.836-1.224-2.448c-1.224-6.12-4.284-10.403-10.404-12.239c-0.612,0-1.224-1.225-1.836-1.836
		c0.612-0.612,1.224-0.612,1.836-1.225c4.284,0,6.732-3.06,6.732-7.344c0-3.061-1.224-6.12-2.448-9.18
		c-3.672-7.956-9.792-14.688-17.136-19.584c-2.448-1.836-5.508-3.061-9.18-3.061c-3.672,0-5.508,1.836-6.12,4.896
		c0,0.611-1.224,1.224-1.224,1.836c-0.612-0.612-1.224-1.225-1.224-1.836c0-6.12-3.06-10.404-8.568-13.464
		c-1.224-0.612-1.836-1.225-3.06-2.448c-9.792-11.017-11.016-26.928-3.06-40.393c0.612-1.836,1.836-3.06,3.06-5.508
		c0.612,1.225,1.224,1.836,2.448,2.448c8.568,9.18,17.748,18.36,26.316,28.152c2.448,2.447,3.06,2.447,5.508,0
		c1.224-1.225,2.448-2.448,3.06-3.061l0,0C-1273.572,851.328-1268.064,857.448-1261.944,862.956z M-1258.272,910.692
		c3.672,0,6.732-3.061,6.12-6.732c0-1.224-1.224-2.448-1.836-3.672c-3.06-4.284-6.12-8.568-9.18-12.853
		c-0.612-0.611-0.612-1.836-0.612-3.06c0.612,0,1.836,0,2.448,0c1.224,0,2.448,0,2.448-0.612c0.612-0.611,0-2.447-0.612-3.06
		c-1.224-1.836-3.672-1.836-5.508-1.225c-4.284,1.225-5.508,5.509-3.06,9.181c3.06,4.283,6.732,9.18,9.792,13.464
		c0.612,0.612,0.612,1.836,0.612,2.448c-0.612,0-1.836,0-2.448,0c-1.224,0-2.448,0-2.448,0.611c-0.612,0.612,0,2.448,0.612,3.061
		C-1260.72,910.08-1259.496,910.08-1258.272,910.692z"/>
	<path fill="#DEDD0B" d="M-1235.628,882.54c-6.732-6.732-13.464-13.464-20.196-20.196c1.224-1.224,2.448-2.448,3.672-3.672
		s1.224-2.448,0-3.672s-2.448-0.612-3.672,0.612c-1.224,1.224-2.448,2.447-3.06,3.672c-6.12-6.12-11.628-11.628-17.748-17.748
		c1.224-1.225,1.836-1.836,3.06-3.061c2.448-2.447,2.448-3.06,0-6.12c-9.18-8.567-18.972-17.747-28.152-26.315
		c-0.612-0.612-1.224-1.224-1.836-1.836c12.24-9.792,31.212-12.24,44.676-0.612c1.224,1.225,2.448,2.448,3.06,3.672
		c2.448,5.508,7.344,8.568,13.464,8.568c0.612,0,1.224,0.612,1.836,1.224c-0.612,0.612-1.224,1.225-1.836,1.225
		c-4.284,1.224-6.12,4.283-4.896,8.567c1.224,3.061,2.448,5.508,4.284,7.956c4.896,6.732,11.628,12.24,18.972,15.912
		c3.06,1.224,6.12,2.448,9.792,1.836s5.508-3.06,5.508-6.731c0-0.612,0.612-1.225,1.224-1.836c0.612,0.611,1.224,0.611,1.836,1.224
		c1.836,6.12,6.12,9.792,12.24,11.016c0.612,0,1.224,0,1.836,0.612c9.792,10.404,16.524,22.032,15.912,36.107
		c-0.612,11.017-5.508,20.196-12.852,28.152c-11.016-12.24-22.032-24.479-33.048-36.107c-1.836-2.448-4.284-4.896-6.12-6.732
		s-2.448-1.836-4.284,0C-1233.18,880.092-1234.404,881.316-1235.628,882.54z M-1236.24,853.164c-2.448,0-4.284,1.224-5.508,3.672
		c-1.224,2.448-0.612,4.284,0.612,6.12c0.612,0.612,2.448,1.224,3.06,0.612c0.612-0.612,0.612-1.836,0.612-2.448s0-1.836,0-2.448
		c0.612,0,1.836,0,2.448,0.612c3.672,2.448,7.956,5.508,11.628,8.567c1.224,0.612,2.448,1.836,3.672,2.448
		c2.448,1.224,4.896,0,6.732-1.836c1.224-1.836,1.836-4.896,0-6.731c-0.612-1.225-1.836-1.837-3.06-1.225
		c-1.224,0.612-1.836,1.836-0.612,3.061c0,0.611,0,1.224,0,2.447c-0.612,0-1.224,0-2.448,0c-0.612,0-0.612-0.611-0.612-0.611
		c-4.284-3.061-7.956-6.12-12.24-8.568C-1233.18,854.388-1234.404,853.776-1236.24,853.164z"/>
	<path fill="#DEDD0B" d="M-1276.02,836.028c-3.06,3.06-6.12,6.12-9.18,9.18c-4.284-4.896-9.18-9.792-14.076-14.688
		c-20.808-22.031-41.616-44.063-62.424-66.096c-2.448-3.06-6.12-4.896-9.18-7.344c-4.896-3.672-9.792-7.344-14.688-11.016
		c3.672-3.673,7.344-7.345,11.016-11.017c1.836,2.448,3.672,4.284,4.896,6.732c7.956,11.628,17.136,21.42,27.54,31.212
		c22.032,20.195,43.452,41.004,65.484,61.812C-1276.632,835.416-1276.632,835.416-1276.02,836.028z"/>
	<path fill="#DEDD0B" d="M-1238.688,892.332c3.06-3.06,6.12-6.12,9.18-9.18c12.852,14.076,25.092,28.151,37.944,42.228
		c-1.836,1.836-3.672,3.061-5.508,4.896C-1210.536,917.424-1224.612,905.184-1238.688,892.332z"/>
	<path fill="#DEDD0B" d="M-1356.804,736.884c-2.448,2.448-5.508,5.508-7.956,7.956c-1.224-1.224-1.836-2.448-3.06-3.672
		c2.448-2.448,5.508-4.896,7.956-7.344c-0.612-0.612-1.224-1.225-1.224-1.836c0-1.225,0-2.448,0.612-2.448
		c0.612-0.612,1.836-0.612,2.448,0c1.836,1.836,3.672,3.672,5.508,5.508c0.612,0.612,0.612,2.448,0,2.448
		c-0.612,0.612-1.836,0.612-3.06,0.612C-1355.58,738.108-1356.192,737.496-1356.804,736.884z"/>
	<path fill="#DEDD0B" d="M-1388.016,761.976c2.448-2.447,4.896-5.508,7.956-7.956c1.224,1.225,2.448,2.448,3.672,3.673
		c-2.448,2.447-5.508,4.896-7.956,7.956c0.612,0.611,1.224,1.224,1.224,1.836c0,1.224,0,2.447-0.612,2.447
		c-0.612,0.612-1.836,0.612-2.448,0c-1.836-1.836-3.672-3.672-5.508-5.508c-0.612-0.611-0.612-2.448,0-2.448
		c0.612-0.611,1.836-0.611,2.448-0.611C-1388.628,760.752-1388.628,761.364-1388.016,761.976z"/>
</g>
<g>
	<path fill="#F07F46" d="M-1058.148,651.816c0-0.612,0.612-1.225,0.612-1.225c0.612-1.836,1.836-3.672,3.06-5.508
		c15.912-16.523,31.824-33.66,47.124-50.184c0,0,0,0,0.612-0.612c1.224,4.284,3.672,8.568,6.732,12.24
		c-4.284,4.284-7.956,7.956-12.24,12.239c-1.224,1.225-1.224,1.837-1.224,3.673c0.612,2.447,3.672,3.672,5.508,1.836
		c2.448-1.836,4.284-4.284,6.732-6.12c1.836-1.836,4.284-4.284,6.12-6.12c3.672,3.06,7.956,4.896,12.24,6.731
		c-0.612,0.612-1.224,1.225-1.836,1.837c-15.912,15.3-31.824,29.987-48.348,45.288c-2.448,2.447-4.896,3.672-7.956,4.283l0,0
		c-1.224,0-2.448,0-4.284,0c-0.612,0-1.224-0.611-1.836-0.611c-4.896-2.448-9.18-6.12-10.404-11.629c0,0,0-0.611-0.612-0.611
		C-1058.148,654.876-1058.148,653.652-1058.148,651.816z"/>
	<path fill="#F07F46" d="M-995.724,566.748c13.464,13.464,26.316,26.316,39.78,39.78c-9.792,7.956-25.704,8.567-36.72-1.836
		C-1003.68,594.9-1004.292,577.764-995.724,566.748z"/>
	<path fill="#F07F46" d="M-951.048,601.632c-13.464-13.464-26.316-26.315-39.78-39.78c9.18-7.956,25.704-9.18,37.332,1.836
		C-941.868,574.704-942.48,591.84-951.048,601.632z"/>
</g>
<g>
	<path fill="#DEDD0B" d="M-476.748,925.38c0,40.393,0,80.784,0,121.176c-0.612,1.836-0.612,3.061-1.224,4.896
		c-3.672,12.24-11.016,21.42-23.256,26.315c-7.344,3.061-15.3,3.061-23.256,2.448c-5.508-0.612-11.016-1.836-15.912-4.284
		c-7.344-3.672-12.852-9.792-17.136-17.136c-4.896-7.956-7.956-16.523-11.628-25.092c-3.672-9.18-8.568-18.36-14.688-26.316
		c-3.672-4.896-8.568-7.956-14.076-9.792c-6.732-1.836-12.852-2.447-19.584-3.06c-9.18-0.612-16.524-4.896-21.42-12.853
		s-6.12-16.523-7.344-25.092c-0.612-9.18,0-18.36,1.224-27.54c0.612-6.12,5.508-11.016,12.24-11.016c48.348,0,97.308,0,145.656,0
		C-482.256,918.648-478.584,920.484-476.748,925.38L-476.748,925.38z M-484.092,927.216c-50.184,0-100.368,0-150.552,0
		c0,11.017,0,22.032,0,33.048c4.284,0,8.568,0,13.464,0c0-7.956,0-15.912,0-23.867c3.06,0,6.12,0,9.18,0c0,7.955,0,15.911,0,23.867
		c2.448,0,4.896,0,7.956,0c0-7.956,0-15.912,0-23.867c3.06,0,6.12,0,9.18,0c0,7.955,0,15.911,0,23.867c2.448,0,4.896,0,7.344,0
		c0-7.956,0-15.912,0-23.867c3.06,0,6.12,0,9.18,0c0,7.955,0,15.911,0,23.867c2.448,0,4.896,0,7.956,0c0-7.956,0-15.912,0-23.867
		c3.06,0,6.12,0,9.18,0c0,7.955,0,15.911,0,23.867c2.448,0,4.896,0,7.344,0c0-7.956,0-15.912,0-23.867c3.06,0,6.12,0,9.18,0
		c0,7.955,0,15.911,0,23.867c2.448,0,4.896,0,7.956,0c0-7.956,0-15.912,0-23.867c3.06,0,6.12,0,9.18,0c0,7.955,0,15.911,0,23.867
		c2.448,0,4.896,0,7.344,0c0-7.956,0-15.912,0-23.867c3.06,0,6.12,0,9.18,0c0,7.955,0,15.911,0,23.867c2.448,0,4.896,0,7.956,0
		c0-7.956,0-15.912,0-23.867c3.06,0,6.12,0,9.18,0c0,7.955,0,15.911,0,23.867c3.06,0,5.508,0,8.568,0
		C-484.092,949.248-484.092,938.232-484.092,927.216z"/>
</g>
<g>
	<path fill="#DEDD0B" d="M-979.2,960.876c-17.136,4.896-25.092,15.912-23.256,29.988c1.224,10.403,10.404,23.868,29.988,23.256
		c0,15.912,1.836,31.824-8.568,45.899c-8.568,11.017-18.972,17.137-33.048,18.36c0-5.508,0.612-11.016,0.612-16.523
		c0.612-9.792,0.612-9.792-9.18-9.792s-19.584,0-29.376,0c-6.12,0-7.344,1.224-6.732,7.344c0.612,6.12,0.612,12.24,1.224,18.359
		c-7.344-0.611-14.688-2.447-20.808-6.731c-12.853-8.568-20.196-20.196-20.808-35.496c-0.612-7.344,0-14.688,0-22.032
		c8.568,0.612,15.912-1.836,22.032-7.344c4.896-4.896,7.344-10.404,7.956-17.137c0.612-11.016-5.508-25.092-23.256-28.764
		c0-11.016-1.224-22.032,0-32.436c1.836-15.301,15.3-25.704,31.824-26.316c2.448,0,4.284,0,6.732,0
		c0,5.508-0.612,10.404-0.612,15.912c-1.224,18.972-3.06,37.332-4.284,56.304c0,3.673,1.224,6.12,5.508,6.12
		c11.628,0,23.256,0,34.884,0c4.284,0,5.508-1.836,5.508-6.12c-0.612-9.18-1.836-17.748-2.448-26.928
		c-1.224-14.076-1.836-28.152-2.448-42.84c0-0.612,0-1.224,0-2.448c18.36-2.447,33.66,6.732,37.944,24.48
		c0.612,1.836,0.612,4.284,0.612,6.12C-978.588,942.516-979.2,951.696-979.2,960.876z M-1036.116,1011.672c6.12,0,11.628,0,17.748,0
		c3.672,0,5.508-1.836,5.508-4.284c0-3.06-1.836-4.896-5.508-4.896c-11.628,0-23.256,0-34.884,0c-3.672,0-5.508,1.836-5.508,4.896
		c0,2.448,2.448,4.284,5.508,4.284C-1047.744,1011.672-1041.624,1011.672-1036.116,1011.672z"/>
	<path fill="#DEDD0B" d="M-914.328,1044.72c-1.836,0-3.672,0-5.508,0c-4.284,0-5.508-1.836-6.12-6.12c0-0.611,0-1.224,0-1.836
		c0-82.008,0-164.016,0-246.636c0-6.732,1.224-7.956,7.344-7.956c2.448,0,4.896,0,7.344,0c3.672,0,5.508,1.836,5.508,5.508
		c0,1.225,0,1.836,0,3.061c0,100.368,0,201.348,0,301.716c0,1.224,0,2.448,0,3.672c0,2.448-1.836,3.672-4.284,3.672
		c-2.448,0-4.284-1.224-4.896-3.06c-0.612-1.225-0.612-2.448-0.612-3.672c0-15.301,0-29.988,0-45.288
		C-914.328,1047.168-914.328,1046.556-914.328,1044.72z"/>
	<path fill="#DEDD0B" d="M-1039.788,825.624c2.448,0,5.508,0,8.568,0c2.448,48.348,5.508,96.696,8.568,145.044
		c-7.956,0-16.524,0-25.092,0C-1045.296,922.32-1042.848,873.972-1039.788,825.624z"/>
	<path fill="#DEDD0B" d="M-1024.488,1098.576c-7.956,0-15.3,0-22.644,0c-0.612-12.24-1.224-23.868-1.836-36.72
		c9.18,0,17.748,0,26.316,0C-1023.264,1074.096-1023.876,1085.724-1024.488,1098.576z"/>
	<path fill="#DEDD0B" d="M-1026.936,815.832c-6.12,0-11.628,0-17.748,0c0-10.404,0-20.808,0-31.212c5.508,0,11.628,0,17.748,0
		C-1026.936,795.636-1026.936,805.428-1026.936,815.832z"/>
</g>
</svg>
