<?xml version="1.0" encoding="utf-8"?>
<!-- Generator: Adobe Illustrator 24.0.3, SVG Export Plug-In . SVG Version: 6.00 Build 0)  -->
<svg version="1.1" id="Layer_1" xmlns="http://www.w3.org/2000/svg" xmlns:xlink="http://www.w3.org/1999/xlink" x="0px" y="0px"
	 viewBox="0 0 100 100" style="enable-background:new 0 0 100 100;" xml:space="preserve">
<style type="text/css">
	.st0{fill:#DEDD0B;}
	.st1{fill:#003F36;}
	.st2{fill:#F07F46;}
</style>
<g>
	<path class="st0" d="M-48.5,59.4c0,0-0.1,0.1-0.1,0.1c-0.3,0.9-0.9,1.4-1.9,1.4c-0.2,0-0.4,0-0.5,0c0-2.1,0-4.1,0-6.2
		c0.4,0,0.8,0.1,1.2,0.1c0.1-3.5-1.2-6.4-4.1-8.4c-3.2-2.1-6.7-2.3-10-0.3c-3.3,1.9-4.7,4.9-4.6,8.7c0.4,0,0.8-0.1,1.2-0.1
		c0,2.1,0,4.2,0,6.2c-0.8,0.1-1.6,0-2.1-0.7c-0.3-0.3-0.4-0.7-0.4-1.2c0-1.7,0-3.5,0-5.2c0.1-3.1,1.3-5.6,3.6-7.6
		c1.6-1.4,3.5-2.3,5.6-2.5c3.1-0.4,5.9,0.4,8.3,2.4c1.8,1.5,3,3.5,3.5,5.9c0.1,0.4,0.1,0.9,0.2,1.3c0,0,0,0.1,0,0.1
		C-48.5,55.3-48.5,57.4-48.5,59.4z"/>
	<path class="st0" d="M-63.6,57.8c0,1.2,0,2.4,0,3.6c0,0.5-0.2,0.8-0.7,0.7c-0.3,0-0.7,0-1-0.1c-0.5-0.2-0.7-0.6-0.7-1.2
		c0-1.6,0-3.1,0-4.7c0-0.5,0-0.9,0-1.4c0-0.8,0.5-1.3,1.3-1.3c0.2,0,0.3,0,0.5,0c0.4,0,0.7,0.3,0.7,0.7
		C-63.6,55.3-63.6,56.6-63.6,57.8z"/>
	<path class="st0" d="M-54.8,57.8c0-1.2,0-2.4,0-3.6c0-0.5,0.2-0.7,0.7-0.7c0.2,0,0.3,0,0.5,0c0.7,0,1.2,0.5,1.2,1.2
		c0,2.1,0,4.2,0,6.2c0,0.7-0.5,1.2-1.2,1.2c-0.2,0-0.4,0-0.6,0c-0.4,0-0.7-0.3-0.7-0.7C-54.8,60.2-54.8,59-54.8,57.8z"/>
</g>
<g>
	<path class="st1" d="M66.9,30.3c-1.5-1.5-8.1,4.1-12.3,8c-0.2,0.2-2.6,2.5-4.2,2.5s-4-2.3-4.2-2.5c-4.2-3.9-10.8-9.5-12.3-8
		c-2.1,2.1,9,13.5,11,15.5c-1.8,13-1.8,30.5-1.8,30.5h7.3h7.3c0,0,0-17.6-1.8-30.5C57.9,43.8,69,32.4,66.9,30.3z"/>
</g>
<circle class="st1" cx="50.3" cy="30.8" r="5.9"/>
<g>
	<g>
		<g>
			<path class="st2" d="M71.3,44.6L70,42.9c-0.4-0.5-1.1-0.6-1.5-0.2l-4,3.1c-0.5,0.4-0.6,1.1-0.2,1.5l1.3,1.7
				c0.4,0.5,1.1,0.6,1.5,0.2l4-3.1C71.6,45.8,71.7,45.1,71.3,44.6z"/>
		</g>
	</g>
	<g>
		<g>
			<rect x="66.9" y="41.1" transform="matrix(0.791 -0.6118 0.6118 0.791 -11.3521 50.102)" class="st2" width="1.5" height="1.1"/>
		</g>
	</g>
	<g>
		<g>
			<rect x="64.9" y="42.7" transform="matrix(0.791 -0.6118 0.6118 0.791 -12.729 49.1935)" class="st2" width="1.5" height="1.1"/>
		</g>
	</g>
	<g>
		<g>
			
				<rect x="62.9" y="44.2" transform="matrix(0.791 -0.6118 0.6118 0.791 -14.1087 48.2832)" class="st2" width="1.5" height="1.1"/>
		</g>
	</g>
	<g>
		<g>
			
				<rect x="71.2" y="46.6" transform="matrix(0.791 -0.6118 0.6118 0.791 -13.8205 53.8432)" class="st2" width="1.5" height="1.1"/>
		</g>
	</g>
	<g>
		<g>
			
				<rect x="69.1" y="48.2" transform="matrix(0.791 -0.6118 0.6118 0.791 -15.1975 52.9348)" class="st2" width="1.5" height="1.1"/>
		</g>
	</g>
	<g>
		<g>
			
				<rect x="67.1" y="49.7" transform="matrix(0.791 -0.6118 0.6118 0.791 -16.5771 52.0245)" class="st2" width="1.5" height="1.1"/>
		</g>
	</g>
	<g>
		<g>
			<path class="st2" d="M53.4,66.7c0.4-1.7,1.9-2.8,3.5-3.4c0.6-0.2,1-0.5,1.5-0.8c2.3-1.8,2.5-3.9,1.1-6.5l-1.2,1
				c-0.8,0.6-1.9,0.5-2.6-0.3l-1.3-1.7c-0.6-0.8-0.5-1.9,0.3-2.6l1.3-0.9c-2.2-1.9-4.3-2.3-6.5-0.5c-0.5,0.4-0.8,0.7-1.2,1.3
				c-1,1.4-2.4,2.6-4.2,2.6c-1.8-0.1-4,0.2-5.4,1.3c-4.3,3.3-4.1,7.9-0.3,12.7c3.7,4.9,8,6.2,12.4,2.9C52.2,70.5,53,68.5,53.4,66.7z
				 M47.1,65.7l-3.6-4.6l1.2-0.9l3.6,4.6L47.1,65.7z M49.1,60.5c-1-1.3-0.8-3.1,0.5-4.1c1.3-1,3.1-0.8,4.1,0.5
				c1,1.3,0.8,3.1-0.5,4.1C51.9,62,50.1,61.8,49.1,60.5z"/>
		</g>
	</g>
	<g>
		<g>
			<path class="st2" d="M64.6,50.8c0.5-0.4,0.5-1,0.2-1.5L63.8,48c-0.4-0.5-1-0.6-1.5-0.2l-7.1,5.1c-0.5,0.4-0.6,1.1-0.2,1.5
				l1.3,1.7c0.4,0.5,1.1,0.6,1.5,0.2L64.6,50.8z"/>
		</g>
	</g>
</g>
<g>
	<g>
		<g>
			<path class="st2" d="M-73.8,98.6c-1.2-0.9-2.4-2-3.3-3.3l-0.8-1.2c-0.2-0.2-0.5-0.4-0.7-0.3c-0.3,0.1-0.5,0.3-0.5,0.6V105
				c-0.4-0.2-0.8-0.4-1.3-0.4c-1.5,0-2.7,1.2-2.7,2.7s1.2,2.7,2.7,2.7s2.7-1.2,2.7-2.7V96.7c0.9,1.2,2.1,2.2,3.2,3
				c0.5,0.4,0.8,1,0.8,1.6c0,1.1-0.9,2-2,2c-0.4,0-0.7,0.3-0.7,0.7c0,0.4,0.3,0.7,0.7,0.7c1.8,0,3.3-1.5,3.3-3.3
				C-72.5,100.2-73,99.2-73.8,98.6z"/>
		</g>
	</g>
	<g>
		<g>
			<path class="st2" d="M-61.2,99.3l-9.4,2.7c-0.3,0.1-0.5,0.3-0.5,0.6v9c-0.4-0.2-0.8-0.4-1.3-0.4c-1.5,0-2.7,1.2-2.7,2.7
				s1.2,2.7,2.7,2.7s2.7-1.2,2.7-2.7c0-0.2,0-8.2,0-8.2l8.1-2.3v5.5c-0.4-0.2-0.8-0.4-1.3-0.4c-1.5,0-2.7,1.2-2.7,2.7
				c0,1.5,1.2,2.7,2.7,2.7c1.5,0,2.7-1.2,2.7-2.7c0-0.2,0-11.3,0-11.3C-60.4,99.5-60.8,99.2-61.2,99.3z"/>
		</g>
	</g>
</g>
<g>
	<path class="st0" d="M-206.2,126.3c-0.2,0.2-0.5,0.4-0.7,0.6c-0.2,0.2-0.2,0.3,0,0.5c0.2,0.2,0.4,0.2,0.5,0
		c0.2-0.2,0.4-0.4,0.6-0.6c1.1,1.1,2.2,2.2,3.3,3.3c-0.2,0.2-0.4,0.4-0.6,0.6c-0.3,0.3-0.3,0.5,0,0.8c2.1,1.9,4.3,3.9,6.4,5.8
		c0.2,0.2,0.4,0.4,0.6,0.5c-1.9,1.9-4.5,2.7-7,1.8c-1.3-0.5-2.4-1.2-3.4-2.1c-0.1-0.1-0.2-0.3-0.2-0.4c-0.2-1-0.7-1.7-1.7-2
		c-0.1,0-0.2-0.2-0.3-0.3c0.1-0.1,0.2-0.1,0.3-0.2c0.7,0,1.1-0.5,1.1-1.2c0-0.5-0.2-1-0.4-1.5c-0.6-1.3-1.6-2.4-2.8-3.2
		c-0.4-0.3-0.9-0.5-1.5-0.5c-0.6,0-0.9,0.3-1,0.8c0,0.1-0.2,0.2-0.2,0.3c-0.1-0.1-0.2-0.2-0.2-0.3c0-1-0.5-1.7-1.4-2.2
		c-0.2-0.1-0.3-0.2-0.5-0.4c-1.6-1.8-1.8-4.4-0.5-6.6c0.1-0.3,0.3-0.5,0.5-0.9c0.1,0.2,0.2,0.3,0.4,0.4c1.4,1.5,2.9,3,4.3,4.6
		c0.4,0.4,0.5,0.4,0.9,0c0.2-0.2,0.4-0.4,0.5-0.5c0,0,0,0,0,0C-208.1,124.4-207.2,125.4-206.2,126.3z M-205.6,134.1
		c0.6,0,1.1-0.5,1-1.1c0-0.2-0.2-0.4-0.3-0.6c-0.5-0.7-1-1.4-1.5-2.1c-0.1-0.1-0.1-0.3-0.1-0.5c0.1,0,0.3,0,0.4,0
		c0.2,0,0.4,0,0.4-0.1c0.1-0.1,0-0.4-0.1-0.5c-0.2-0.3-0.6-0.3-0.9-0.2c-0.7,0.2-0.9,0.9-0.5,1.5c0.5,0.7,1.1,1.5,1.6,2.2
		c0.1,0.1,0.1,0.3,0.1,0.4c-0.1,0-0.3,0-0.4,0c-0.2,0-0.4,0-0.4,0.1c-0.1,0.1,0,0.4,0.1,0.5C-206,134-205.8,134-205.6,134.1z"/>
	<path class="st0" d="M-201.9,129.5c-1.1-1.1-2.2-2.2-3.3-3.3c0.2-0.2,0.4-0.4,0.6-0.6c0.2-0.2,0.2-0.4,0-0.6
		c-0.2-0.2-0.4-0.1-0.6,0.1c-0.2,0.2-0.4,0.4-0.5,0.6c-1-1-1.9-1.9-2.9-2.9c0.2-0.2,0.3-0.3,0.5-0.5c0.4-0.4,0.4-0.5,0-1
		c-1.5-1.4-3.1-2.9-4.6-4.3c-0.1-0.1-0.2-0.2-0.3-0.3c2-1.6,5.1-2,7.3-0.1c0.2,0.2,0.4,0.4,0.5,0.6c0.4,0.9,1.2,1.4,2.2,1.4
		c0.1,0,0.2,0.1,0.3,0.2c-0.1,0.1-0.2,0.2-0.3,0.2c-0.7,0.2-1,0.7-0.8,1.4c0.2,0.5,0.4,0.9,0.7,1.3c0.8,1.1,1.9,2,3.1,2.6
		c0.5,0.2,1,0.4,1.6,0.3c0.6-0.1,0.9-0.5,0.9-1.1c0-0.1,0.1-0.2,0.2-0.3c0.1,0.1,0.2,0.1,0.3,0.2c0.3,1,1,1.6,2,1.8
		c0.1,0,0.2,0,0.3,0.1c1.6,1.7,2.7,3.6,2.6,5.9c-0.1,1.8-0.9,3.3-2.1,4.6c-1.8-2-3.6-4-5.4-5.9c-0.3-0.4-0.7-0.8-1-1.1
		c-0.3-0.3-0.4-0.3-0.7,0C-201.5,129.1-201.7,129.3-201.9,129.5z M-202,124.7c-0.4,0-0.7,0.2-0.9,0.6c-0.2,0.4-0.1,0.7,0.1,1
		c0.1,0.1,0.4,0.2,0.5,0.1c0.1-0.1,0.1-0.3,0.1-0.4c0-0.1,0-0.3,0-0.4c0.1,0,0.3,0,0.4,0.1c0.6,0.4,1.3,0.9,1.9,1.4
		c0.2,0.1,0.4,0.3,0.6,0.4c0.4,0.2,0.8,0,1.1-0.3c0.2-0.3,0.3-0.8,0-1.1c-0.1-0.2-0.3-0.3-0.5-0.2c-0.2,0.1-0.3,0.3-0.1,0.5
		c0,0.1,0,0.2,0,0.4c-0.1,0-0.2,0-0.4,0c-0.1,0-0.1-0.1-0.1-0.1c-0.7-0.5-1.3-1-2-1.4C-201.5,124.9-201.7,124.8-202,124.7z"/>
	<path class="st0" d="M-208.5,121.9c-0.5,0.5-1,1-1.5,1.5c-0.7-0.8-1.5-1.6-2.3-2.4c-3.4-3.6-6.8-7.2-10.2-10.8
		c-0.4-0.5-1-0.8-1.5-1.2c-0.8-0.6-1.6-1.2-2.4-1.8c0.6-0.6,1.2-1.2,1.8-1.8c0.3,0.4,0.6,0.7,0.8,1.1c1.3,1.9,2.8,3.5,4.5,5.1
		c3.6,3.3,7.1,6.7,10.7,10.1C-208.6,121.8-208.6,121.8-208.5,121.9z"/>
	<path class="st0" d="M-202.4,131.1c0.5-0.5,1-1,1.5-1.5c2.1,2.3,4.1,4.6,6.2,6.9c-0.3,0.3-0.6,0.5-0.9,0.8
		C-197.8,135.2-200.1,133.2-202.4,131.1z"/>
	<path class="st0" d="M-221.7,105.7c-0.4,0.4-0.9,0.9-1.3,1.3c-0.2-0.2-0.3-0.4-0.5-0.6c0.4-0.4,0.9-0.8,1.3-1.2
		c-0.1-0.1-0.2-0.2-0.2-0.3c0-0.2,0-0.4,0.1-0.4c0.1-0.1,0.3-0.1,0.4,0c0.3,0.3,0.6,0.6,0.9,0.9c0.1,0.1,0.1,0.4,0,0.4
		c-0.1,0.1-0.3,0.1-0.5,0.1C-221.5,105.9-221.6,105.8-221.7,105.7z"/>
	<path class="st0" d="M-226.8,109.8c0.4-0.4,0.8-0.9,1.3-1.3c0.2,0.2,0.4,0.4,0.6,0.6c-0.4,0.4-0.9,0.8-1.3,1.3
		c0.1,0.1,0.2,0.2,0.2,0.3c0,0.2,0,0.4-0.1,0.4c-0.1,0.1-0.3,0.1-0.4,0c-0.3-0.3-0.6-0.6-0.9-0.9c-0.1-0.1-0.1-0.4,0-0.4
		c0.1-0.1,0.3-0.1,0.4-0.1C-226.9,109.6-226.9,109.7-226.8,109.8z"/>
</g>
<g>
	<path class="st2" d="M-172.9,91.8c0-0.1,0.1-0.2,0.1-0.2c0.1-0.3,0.3-0.6,0.5-0.9c2.6-2.7,5.2-5.5,7.7-8.2c0,0,0,0,0.1-0.1
		c0.2,0.7,0.6,1.4,1.1,2c-0.7,0.7-1.3,1.3-2,2c-0.2,0.2-0.2,0.3-0.2,0.6c0.1,0.4,0.6,0.6,0.9,0.3c0.4-0.3,0.7-0.7,1.1-1
		c0.3-0.3,0.7-0.7,1-1c0.6,0.5,1.3,0.8,2,1.1c-0.1,0.1-0.2,0.2-0.3,0.3c-2.6,2.5-5.2,4.9-7.9,7.4c-0.4,0.4-0.8,0.6-1.3,0.7
		c0,0,0,0,0,0c-0.2,0-0.4,0-0.7,0c-0.1,0-0.2-0.1-0.3-0.1c-0.8-0.4-1.5-1-1.7-1.9c0,0,0-0.1-0.1-0.1
		C-172.9,92.3-172.9,92.1-172.9,91.8z"/>
	<path class="st2" d="M-162.7,77.9c2.2,2.2,4.3,4.3,6.5,6.5c-1.6,1.3-4.2,1.4-6-0.3C-164,82.5-164.1,79.7-162.7,77.9z"/>
	<path class="st2" d="M-155.4,83.6c-2.2-2.2-4.3-4.3-6.5-6.5c1.5-1.3,4.2-1.5,6.1,0.3C-153.9,79.2-154,82-155.4,83.6z"/>
</g>
<g>
	<path class="st0" d="M-77.9,136.5c0,6.6,0,13.2,0,19.8c-0.1,0.3-0.1,0.5-0.2,0.8c-0.6,2-1.8,3.5-3.8,4.3c-1.2,0.5-2.5,0.5-3.8,0.4
		c-0.9-0.1-1.8-0.3-2.6-0.7c-1.2-0.6-2.1-1.6-2.8-2.8c-0.8-1.3-1.3-2.7-1.9-4.1c-0.6-1.5-1.4-3-2.4-4.3c-0.6-0.8-1.4-1.3-2.3-1.6
		c-1.1-0.3-2.1-0.4-3.2-0.5c-1.5-0.1-2.7-0.8-3.5-2.1c-0.8-1.3-1-2.7-1.2-4.1c-0.1-1.5,0-3,0.2-4.5c0.1-1,0.9-1.8,2-1.8
		c7.9,0,15.9,0,23.8,0C-78.8,135.4-78.2,135.7-77.9,136.5C-77.9,136.5-77.9,136.5-77.9,136.5z M-79.1,136.8c-8.2,0-16.4,0-24.6,0
		c0,1.8,0,3.6,0,5.4c0.7,0,1.4,0,2.2,0c0-1.3,0-2.6,0-3.9c0.5,0,1,0,1.5,0c0,1.3,0,2.6,0,3.9c0.4,0,0.8,0,1.3,0c0-1.3,0-2.6,0-3.9
		c0.5,0,1,0,1.5,0c0,1.3,0,2.6,0,3.9c0.4,0,0.8,0,1.2,0c0-1.3,0-2.6,0-3.9c0.5,0,1,0,1.5,0c0,1.3,0,2.6,0,3.9c0.4,0,0.8,0,1.3,0
		c0-1.3,0-2.6,0-3.9c0.5,0,1,0,1.5,0c0,1.3,0,2.6,0,3.9c0.4,0,0.8,0,1.2,0c0-1.3,0-2.6,0-3.9c0.5,0,1,0,1.5,0c0,1.3,0,2.6,0,3.9
		c0.4,0,0.8,0,1.3,0c0-1.3,0-2.6,0-3.9c0.5,0,1,0,1.5,0c0,1.3,0,2.6,0,3.9c0.4,0,0.8,0,1.2,0c0-1.3,0-2.6,0-3.9c0.5,0,1,0,1.5,0
		c0,1.3,0,2.6,0,3.9c0.4,0,0.8,0,1.3,0c0-1.3,0-2.6,0-3.9c0.5,0,1,0,1.5,0c0,1.3,0,2.6,0,3.9c0.5,0,0.9,0,1.4,0
		C-79.1,140.4-79.1,138.6-79.1,136.8z"/>
</g>
<g>
	<path class="st0" d="M-160,142.3c-2.8,0.8-4.1,2.6-3.8,4.9c0.2,1.7,1.7,3.9,4.9,3.8c0,2.6,0.3,5.2-1.4,7.5c-1.4,1.8-3.1,2.8-5.4,3
		c0-0.9,0.1-1.8,0.1-2.7c0.1-1.6,0.1-1.6-1.5-1.6c-1.6,0-3.2,0-4.8,0c-1,0-1.2,0.2-1.1,1.2c0.1,1,0.1,2,0.2,3
		c-1.2-0.1-2.4-0.4-3.4-1.1c-2.1-1.4-3.3-3.3-3.4-5.8c-0.1-1.2,0-2.4,0-3.6c1.4,0.1,2.6-0.3,3.6-1.2c0.8-0.8,1.2-1.7,1.3-2.8
		c0.1-1.8-0.9-4.1-3.8-4.7c0-1.8-0.2-3.6,0-5.3c0.3-2.5,2.5-4.2,5.2-4.3c0.4,0,0.7,0,1.1,0c0,0.9-0.1,1.7-0.1,2.6
		c-0.2,3.1-0.5,6.1-0.7,9.2c0,0.6,0.2,1,0.9,1c1.9,0,3.8,0,5.7,0c0.7,0,0.9-0.3,0.9-1c-0.1-1.5-0.3-2.9-0.4-4.4
		c-0.2-2.3-0.3-4.6-0.4-7c0-0.1,0-0.2,0-0.4c3-0.4,5.5,1.1,6.2,4c0.1,0.3,0.1,0.7,0.1,1C-159.9,139.3-160,140.8-160,142.3z
		 M-169.3,150.6c1,0,1.9,0,2.9,0c0.6,0,0.9-0.3,0.9-0.7c0-0.5-0.3-0.8-0.9-0.8c-1.9,0-3.8,0-5.7,0c-0.6,0-0.9,0.3-0.9,0.8
		c0,0.4,0.4,0.7,0.9,0.7C-171.2,150.6-170.2,150.6-169.3,150.6z"/>
	<path class="st0" d="M-149.4,156c-0.3,0-0.6,0-0.9,0c-0.7,0-0.9-0.3-1-1c0-0.1,0-0.2,0-0.3c0-13.4,0-26.8,0-40.3
		c0-1.1,0.2-1.3,1.2-1.3c0.4,0,0.8,0,1.2,0c0.6,0,0.9,0.3,0.9,0.9c0,0.2,0,0.3,0,0.5c0,16.4,0,32.9,0,49.3c0,0.2,0,0.4,0,0.6
		c0,0.4-0.3,0.6-0.7,0.6c-0.4,0-0.7-0.2-0.8-0.5c-0.1-0.2-0.1-0.4-0.1-0.6c0-2.5,0-4.9,0-7.4C-149.4,156.4-149.4,156.3-149.4,156z"
		/>
	<path class="st0" d="M-169.9,120.2c0.4,0,0.9,0,1.4,0c0.4,7.9,0.9,15.8,1.4,23.7c-1.3,0-2.7,0-4.1,0
		C-170.8,136-170.4,128.1-169.9,120.2z"/>
	<path class="st0" d="M-167.4,164.8c-1.3,0-2.5,0-3.7,0c-0.1-2-0.2-3.9-0.3-6c1.5,0,2.9,0,4.3,0
		C-167.2,160.8-167.3,162.7-167.4,164.8z"/>
	<path class="st0" d="M-167.8,118.6c-1,0-1.9,0-2.9,0c0-1.7,0-3.4,0-5.1c0.9,0,1.9,0,2.9,0C-167.8,115.3-167.8,116.9-167.8,118.6z"
		/>
</g>
</svg>
