<?xml version="1.0" encoding="utf-8"?>
<!-- Generator: Adobe Illustrator 16.0.0, SVG Export Plug-In . SVG Version: 6.00 Build 0)  -->
<!DOCTYPE svg PUBLIC "-//W3C//DTD SVG 1.1//EN" "http://www.w3.org/Graphics/SVG/1.1/DTD/svg11.dtd">
<svg version="1.1" id="Layer_1" xmlns="http://www.w3.org/2000/svg" xmlns:xlink="http://www.w3.org/1999/xlink" x="0px" y="0px"
	 width="612px" height="792px" viewBox="0 0 612 792" enable-background="new 0 0 612 792" xml:space="preserve">
<g>
	<g>
		<g>
			<path fill="#F07F46" d="M302.836,189.512c-7.344-5.508-14.688-12.24-20.196-20.196l-4.896-7.344
				c-1.225-1.224-3.061-2.448-4.284-1.836c-1.836,0.612-3.061,1.836-3.061,3.672v64.26c-2.447-0.612-4.896-1.224-7.955-1.224
				c-9.181,0-16.524,7.344-16.524,16.524s7.344,16.524,16.524,16.524c9.18,0,16.523-7.344,16.523-16.524v-64.872
				c5.508,7.344,12.853,13.464,19.584,18.36c3.061,2.448,4.896,6.12,4.896,9.792c0,6.732-5.509,12.24-12.24,12.24
				c-2.448,0-4.284,1.836-4.284,4.284c0,2.448,1.836,4.284,4.284,4.284c11.016,0,20.196-9.18,20.196-20.196
				C311.404,199.916,308.344,193.796,302.836,189.512z"/>
		</g>
	</g>
	<g>
		<g>
			<path fill="#F07F46" d="M379.948,194.408l-57.528,16.524c-1.836,0.612-3.061,1.836-3.061,3.672v55.08
				c-2.447-1.224-4.896-2.448-7.955-2.448c-9.181,0-16.524,7.344-16.524,16.524s7.344,16.524,16.524,16.524
				c9.18,0,16.523-7.344,16.523-16.524c0-1.224,0-50.184,0-50.184L377.5,219.5v33.66c-2.448-1.224-4.896-2.448-7.956-2.448
				c-9.18,0-16.524,7.344-16.524,16.524c0,9.18,7.345,16.524,16.524,16.524s16.523-7.344,16.523-16.524c0-1.224,0-69.156,0-69.156
				C385.456,195.632,383.008,193.184,379.948,194.408z"/>
		</g>
	</g>
</g>
<path fill="#F07F46" d="M-872.1,722.196c1.836,0,3.06,0,4.284,0c3.06,0,4.284,1.224,4.284,4.284c0,0.611,0,1.224,0,1.224
	c0,60.588,0,120.563,0,181.152c0,4.896-0.612,5.508-5.508,5.508c-1.836,0-3.672,0-5.508,0c-2.448,0-3.672-1.225-3.672-3.672
	c0-0.612,0-1.225,0-2.448c0-74.052,0-148.104,0-221.544c0-1.225,0-1.836,0-3.061c0-1.836,1.224-3.06,3.06-3.06
	s3.06,0.612,3.672,2.448c0,1.224,0,1.836,0,3.06c0,11.016,0,22.032,0,33.048C-872.1,720.36-872.1,720.972-872.1,722.196z"/>
<path fill="#F07F46" d="M-922.896,798.084c-16.524,4.896-25.092,15.3-23.256,29.988c1.224,10.403,10.404,23.868,29.988,23.256
	c0,15.912,1.836,31.212-8.568,45.288c-7.956,11.016-18.972,16.523-33.048,18.359c0-5.508,0.612-11.016,0.612-15.911
	c0.612-9.793,0.612-9.793-9.18-9.793c-9.792,0-18.972,0-28.764,0c-6.12,0-7.344,1.225-6.732,7.345
	c0.612,6.12,0.612,12.239,1.224,18.359c-7.344-0.611-14.076-2.447-20.196-6.12c-12.852-7.955-20.196-19.584-20.808-34.884
	c-0.612-7.344,0-14.076,0-22.032c8.568,0.612,15.912-1.836,22.032-7.344c4.896-4.896,7.344-10.403,7.956-17.136
	c0.612-11.016-5.508-25.092-22.644-28.152c0-11.016-1.224-21.42,0-32.436c1.836-14.688,15.3-25.092,31.212-25.704
	c2.448,0,4.284,0,6.732,0c0,5.508-0.612,10.404-0.612,15.912c-1.224,18.359-2.448,36.72-4.284,55.691c0,3.673,1.224,6.12,5.508,6.12
	c11.628,0,22.644,0,34.272,0c4.284,0,5.508-1.836,5.508-6.12c-0.612-8.567-1.836-17.748-2.448-26.315
	c-1.224-14.076-1.836-28.152-2.448-42.229c0-0.611,0-1.224,0-2.447c17.748-2.448,33.048,6.731,37.332,24.479
	c0.612,1.836,0.612,4.284,0.612,6.12C-922.896,780.336-922.896,788.904-922.896,798.084z M-979.812,848.268
	c5.508,0,11.628,0,17.136,0c3.672,0,5.508-1.836,5.508-4.283c0-3.061-1.836-4.896-5.508-4.896c-11.628,0-22.644,0-34.272,0
	c-3.672,0-5.508,1.836-5.508,4.896c0,2.447,2.448,4.283,5.508,4.283C-990.828,848.268-985.32,848.268-979.812,848.268z"/>
<path fill="#F07F46" d="M-983.484,664.668c2.448,0,5.508,0,8.568,0c2.448,47.736,5.508,95.472,7.956,143.208
	c-7.956,0-16.524,0-24.48,0C-988.992,760.14-985.932,712.404-983.484,664.668z"/>
<path fill="#F07F46" d="M-968.184,933.948c-7.344,0-14.688,0-22.644,0c-0.612-11.628-1.224-23.868-1.836-36.108
	c8.568,0,17.136,0,26.316,0C-966.96,910.08-967.572,921.708-968.184,933.948z"/>
<path fill="#F07F46" d="M-970.632,655.488c-6.12,0-11.628,0-17.136,0c0-10.404,0-20.196,0-30.601c5.508,0,11.628,0,17.136,0
	C-970.632,634.68-970.632,645.084-970.632,655.488z"/>
<g>
	<path fill="#DEDD0B" d="M-296.82,453.528l-0.612,0.611c-1.836,5.509-5.508,8.568-11.628,8.568c-1.224,0-2.448,0-3.06,0
		c0-12.852,0-25.092,0-37.944c2.448,0,4.896,0.612,7.344,0.612c0.612-21.42-7.344-39.168-25.092-51.408
		c-19.584-12.852-41.004-14.076-61.2-1.836c-20.196,11.628-28.764,29.988-28.152,53.244c2.448,0,4.896-0.612,7.344-0.612
		c0,12.853,0,25.704,0,37.944c-4.896,0.612-9.792,0-12.852-4.284c-1.836-1.836-2.448-4.284-2.448-7.344c0-10.404,0-21.42,0-31.824
		c0.612-18.972,7.956-34.272,22.032-46.512c9.792-8.568,21.42-14.076,34.272-15.3c18.972-2.448,36.108,2.448,50.796,14.688
		c11.016,9.18,18.36,21.42,21.42,36.108c0.612,2.448,0.612,5.508,1.224,7.956v0.611C-296.82,428.436-296.82,441.288-296.82,453.528z
		"/>
	<path fill="#DEDD0B" d="M-389.232,443.736c0,7.344,0,14.688,0,22.031c0,3.061-1.224,4.896-4.284,4.284c-1.836,0-4.284,0-6.12-0.611
		c-3.06-1.225-4.284-3.673-4.284-7.345c0-9.792,0-18.972,0-28.764c0-3.061,0-5.508,0-8.568c0-4.896,3.06-7.956,7.956-7.956
		c1.224,0,1.836,0,3.06,0c2.448,0,4.284,1.836,4.284,4.284C-389.232,428.436-389.232,436.392-389.232,443.736z"/>
	<path fill="#DEDD0B" d="M-335.376,443.736c0-7.345,0-14.688,0-22.032c0-3.061,1.224-4.284,4.284-4.284c1.224,0,1.836,0,3.06,0
		c4.284,0,7.344,3.061,7.344,7.344c0,12.853,0,25.704,0,37.944c0,4.284-3.06,7.344-7.344,7.344c-1.224,0-2.448,0-3.672,0
		c-2.448,0-4.284-1.836-4.284-4.284C-335.376,458.424-335.376,451.08-335.376,443.736z"/>
</g>
<g>
	<path fill="#003F36" d="M409.428,277.272c-9.18-9.18-49.571,25.092-75.275,48.96c-1.225,1.224-15.912,15.3-25.704,15.3
		c-9.792,0-24.48-14.076-25.704-15.3c-25.704-23.868-66.096-58.14-75.276-48.96c-12.852,12.852,55.08,82.62,67.32,94.86
		c-11.016,79.561-11.016,186.66-11.016,186.66h44.676h44.676c0,0,0-107.712-11.016-186.66
		C354.348,359.892,422.28,290.124,409.428,277.272z"/>
</g>
<circle fill="#003F36" cx="307.836" cy="278.496" r="36.108"/>
<g>
	<g>
		<g>
			<path fill="#F07F46" d="M-574.056,507.996l-7.956-10.404c-2.448-3.06-6.732-3.672-9.18-1.224l-24.48,18.972
				c-3.06,2.448-3.672,6.732-1.224,9.181l7.956,10.403c2.448,3.061,6.732,3.672,9.18,1.225l24.48-18.973
				C-572.22,515.34-571.608,511.056-574.056,507.996z"/>
		</g>
	</g>
	<g>
		<g>
			
				<rect x="-600.323" y="486.901" transform="matrix(-0.791 0.6118 -0.6118 -0.791 -767.015 1242.5447)" fill="#F07F46" width="9.18" height="6.732"/>
		</g>
	</g>
	<g>
		<g>
			
				<rect x="-613.3" y="496.465" transform="matrix(-0.791 0.6118 -0.6118 -0.791 -784.43 1267.6082)" fill="#F07F46" width="9.18" height="6.732"/>
		</g>
	</g>
	<g>
		<g>
			
				<rect x="-625.434" y="506.128" transform="matrix(-0.791 0.6118 -0.6118 -0.791 -800.2251 1292.3442)" fill="#F07F46" width="9.18" height="6.732"/>
		</g>
	</g>
	<g>
		<g>
			
				<rect x="-574.88" y="520.212" transform="matrix(-0.791 0.6118 -0.6118 -0.791 -701.0651 1286.6393)" fill="#F07F46" width="9.18" height="6.732"/>
		</g>
	</g>
	<g>
		<g>
			
				<rect x="-586.998" y="529.886" transform="matrix(-0.791 0.6118 -0.6118 -0.791 -716.8752 1311.3746)" fill="#F07F46" width="9.18" height="6.732"/>
		</g>
	</g>
	<g>
		<g>
			
				<rect x="-599.132" y="539.549" transform="matrix(-0.791 0.6118 -0.6118 -0.791 -732.6714 1336.1099)" fill="#F07F46" width="9.18" height="6.732"/>
		</g>
	</g>
	<g>
		<g>
			<path fill="#F07F46" d="M-683.604,643.86c2.448-10.404,11.628-17.137,21.42-20.809c3.672-1.224,6.12-3.06,9.18-4.896
				c14.076-11.017,15.3-23.868,6.732-39.78l-7.344,6.12c-4.896,3.672-11.628,3.06-15.912-1.836l-7.956-10.404
				c-3.672-4.896-3.06-11.628,1.836-15.912l7.956-5.508c-13.464-11.628-26.316-14.076-39.78-3.06
				c-3.06,2.447-4.896,4.283-7.344,7.956c-6.12,8.567-14.688,15.911-25.704,15.911c-11.016-0.611-24.48,1.225-33.048,7.956
				c-26.316,20.196-25.092,48.349-1.836,77.725c22.644,29.987,48.96,37.943,75.888,17.748
				C-690.948,667.116-686.052,654.264-683.604,643.86z M-722.16,637.128l-22.032-28.152l7.344-5.508l22.032,28.152L-722.16,637.128z
				 M-709.92,605.304c-6.12-7.956-4.896-18.972,3.06-25.092s18.972-4.896,25.092,3.06c6.12,7.956,4.896,18.973-3.06,25.093
				C-692.172,614.484-703.8,613.26-709.92,605.304z"/>
		</g>
	</g>
	<g>
		<g>
			<path fill="#F07F46" d="M-615.06,545.94c3.06-2.448,3.06-6.12,1.224-9.181l-5.508-7.344c-2.448-3.06-6.12-3.672-9.18-1.224
				l-43.452,31.212c-3.06,2.447-3.672,6.731-1.224,9.18l7.956,10.404c2.448,3.06,6.732,3.672,9.18,1.224L-615.06,545.94z"/>
		</g>
	</g>
</g>
<g>
	<path fill="#F07F46" d="M89.352,963.324c-1.224,0-3.06,0-4.284,0c-1.224,0-1.836,0.611-1.836,1.836
		c0,1.224,0.612,1.836,1.836,1.836c1.224,0,2.448,0,3.672,0c0,6.732,0,14.076,0,20.808c-1.224,0-2.448,0-3.672,0
		c-2.448,0-2.448,0.612-2.448,2.448c0.612,12.852,1.224,26.316,1.836,39.168c0,1.224,0,2.448,0,3.672
		c-12.24,0-23.256-5.508-28.152-16.523c-2.448-5.509-3.672-11.628-4.284-17.748c0-0.612,0-1.225,0.612-1.836
		c2.448-3.673,3.06-7.956,0.612-11.628c0-0.612,0-1.225,0-1.837c0.612,0,1.224,0,1.224,0.612c2.448,1.836,4.896,2.448,7.344,0
		c1.224-1.836,3.06-3.672,3.672-6.12c1.836-6.12,2.448-12.852,1.224-18.972c-0.612-2.448-1.224-4.896-3.06-6.732
		s-3.672-1.836-6.12-0.611c-0.612,0-1.224,0-1.836,0c0-0.612,0-1.225,0.612-1.837c3.06-3.06,4.284-7.344,2.448-11.627
		c0-0.612-0.612-1.837-0.612-2.448c0.612-11.017,8.568-19.584,19.584-22.645c1.224-0.611,2.448-0.611,4.284-1.224
		c0,1.224,0,1.836-0.612,2.448c0,9.18-0.612,18.972-0.612,28.151c0,2.448,0,2.448,2.448,2.448c1.224,0,2.448,0,3.672,0l0,0
		C89.352,951.084,89.352,957.204,89.352,963.324z M66.708,990.252c2.448,1.836,4.896,1.836,6.732-0.612
		c0.612-0.611,0.612-1.836,1.224-3.06c0.612-3.672,1.224-7.344,1.836-11.016c0-0.612,0.612-1.225,1.224-1.837
		c0.612,0.612,0.612,1.225,1.224,1.225c0.612,0.612,1.224,1.224,1.836,1.224c0.612,0,1.224-1.224,1.224-1.836
		c0-1.836-0.612-3.06-2.448-3.672c-3.06-1.225-5.508,0-6.12,3.672c-0.612,4.284-1.224,7.956-1.836,12.24
		c0,0.612-0.612,1.224-1.224,1.836c-0.612-0.612-0.612-1.224-1.224-1.224c-0.612-0.612-1.224-1.225-1.836-1.225
		c-0.612,0-1.224,1.225-1.224,1.836C65.484,988.416,66.096,989.028,66.708,990.252z"/>
	<path fill="#F07F46" d="M93.024,987.192c0-6.732,0-14.076,0-20.809c1.224,0,2.448,0,3.672,0c1.224,0,1.836-0.611,1.836-1.836
		c0-1.224-0.612-1.836-1.836-1.836c-1.224,0-2.448,0-3.672,0c0-6.12,0-12.24,0-18.36c1.224,0,2.448,0,3.06,0
		c3.06,0,3.06,0,3.06-3.06c0-9.792-0.612-18.972-0.612-28.764c0-0.612,0-1.225,0-1.836c11.628,1.224,22.644,9.792,23.868,23.256
		c0,1.224,0,2.448-0.612,3.06c-1.224,4.284-0.612,7.956,2.448,11.017c0.612,0.611,0.612,1.224,0.612,1.836c-0.612,0-1.224,0-1.836,0
		c-2.448-1.836-5.508-1.225-6.732,1.836c-1.224,1.836-1.836,4.284-1.836,6.731c-0.612,6.12-0.612,12.24,1.836,18.36
		c0.612,2.448,1.836,4.896,4.284,6.12c2.448,1.224,4.284,1.224,6.12-0.612c0.612-0.612,1.224-0.612,1.224-0.612
		c0,0.612,0,1.225,0,1.837c-2.448,4.283-1.836,7.956,0.612,12.239c0,0.612,0.612,0.612,0.612,1.225
		c0,10.403-3.06,20.195-10.404,27.54c-6.12,5.508-13.464,7.344-21.42,7.956c0.612-12.24,1.224-23.868,1.836-36.108
		c0-2.448,0-4.896,0.612-6.732c0-1.836-0.612-2.447-2.448-2.447C96.084,987.192,94.248,987.192,93.024,987.192z M108.324,971.28
		c-1.836-1.225-3.06-1.836-4.896-1.225c-1.836,0.612-3.06,1.836-3.06,3.673c0,0.611,0.612,1.836,1.224,1.836
		c0.612,0,1.224-0.612,1.836-1.225c0.612-0.611,0.612-1.224,1.224-1.224c0.612,0.612,1.224,1.224,1.224,1.836
		c0.612,3.672,1.224,6.732,1.836,10.404c0,1.224,0.612,1.836,0.612,3.06c0.612,1.836,2.448,3.061,4.284,2.448
		c1.836,0,3.06-1.836,3.672-3.672c0-1.225,0-1.836-1.224-2.448c-1.224,0-1.836,0-1.836,1.224c0,0.612-0.612,0.612-1.224,1.225
		c-0.612-0.612-0.612-0.612-1.224-1.225v-0.611c-0.612-3.673-1.224-7.345-1.836-11.017
		C108.936,973.728,108.936,972.504,108.324,971.28z"/>
	<path fill="#F07F46" d="M96.084,941.292c-3.06,0-6.732,0-9.792,0c0-4.896,0-9.792,0.612-14.688
		c0.612-22.645,1.224-44.677,1.836-67.32c0-3.061-0.612-6.12-1.224-8.568c-0.612-4.284-1.224-9.18-1.836-13.464
		c3.672,0,7.956,0,11.628,0c0,1.836-0.612,4.284-1.224,6.12c-1.836,10.404-2.448,20.196-1.836,30.6
		c0.612,22.032,1.224,44.677,1.836,66.708V941.292z"/>
	<path fill="#F07F46" d="M86.292,990.864c3.06,0,6.12,0,9.792,0c-0.612,14.076-1.224,28.151-1.836,41.616c-1.836,0-3.672,0-5.508,0
		C88.128,1018.404,86.904,1004.94,86.292,990.864z"/>
	<path fill="#F07F46" d="M105.876,847.656c-3.06,0-5.508,0-8.568,0c0-1.225,0-2.448,0-3.672c2.448,0,5.508,0,7.956,0
		c0-0.612,0-1.225,0-1.225c0.612-0.611,1.224-1.224,1.836-1.224c0.612,0,1.224,0.612,1.224,1.224c0,1.836,0,3.672,0,5.508
		c0,0.612-1.224,1.225-1.224,1.225c-0.612,0-1.224-0.612-1.836-1.225C105.876,848.88,105.876,848.268,105.876,847.656z"/>
	<path fill="#F07F46" d="M76.5,844.596c3.06,0,5.508,0,7.956,0c0,1.225,0,2.448,0,3.672c-2.448,0-5.508,0-7.956,0
		c0,0.612,0,1.225,0,1.225c-0.612,0.611-1.224,1.224-1.836,1.224c-0.612,0-1.224-0.612-1.224-1.224c0-1.836,0-3.672,0-5.508
		c0-0.612,1.224-1.225,1.224-1.225c0.612,0,1.224,0.612,1.836,1.225C76.5,843.372,76.5,843.984,76.5,844.596z"/>
</g>
<g>
	<path fill="#F07F46" d="M-414.936,774.216c0-0.612,0.612-1.224,0.612-1.224c0.612-1.836,1.836-3.672,3.06-5.508
		c15.912-16.524,31.824-33.66,47.124-50.185c0,0,0,0,0.612-0.611c1.224,4.283,3.672,8.567,6.732,12.239
		c-4.284,4.284-7.956,7.956-12.24,12.24c-1.224,1.224-1.224,1.836-1.224,3.672c0.612,2.448,3.672,3.672,5.508,1.836
		c2.448-1.836,4.284-4.283,6.732-6.12c1.836-1.836,4.284-4.283,6.12-6.12c3.672,3.061,7.956,4.896,12.24,6.732
		c-0.612,0.612-1.224,1.224-1.836,1.836c-15.912,15.3-31.824,29.988-48.348,45.288c-2.448,2.448-4.896,3.672-7.956,4.284l0,0
		c-1.224,0-2.448,0-4.284,0c-0.612,0-1.224-0.612-1.836-0.612c-4.896-2.448-9.18-6.12-10.404-11.628c0,0,0-0.612-0.612-0.612
		C-414.936,777.276-414.936,775.44-414.936,774.216z"/>
	<path fill="#F07F46" d="M-352.512,689.148c13.464,13.464,26.316,26.315,39.78,39.779c-9.792,7.956-25.704,8.568-36.72-1.836
		C-360.468,716.688-361.08,700.164-352.512,689.148z"/>
	<path fill="#F07F46" d="M-307.836,724.032c-13.464-13.464-26.316-26.316-39.78-39.78c9.18-7.956,25.704-9.18,37.332,1.836
		C-299.268,697.104-299.88,714.24-307.836,724.032z"/>
</g>
<g>
	<path fill="#DEDD0B" d="M-476.748,925.38c0,40.393,0,80.784,0,121.176c-0.612,1.836-0.612,3.061-1.224,4.896
		c-3.672,12.24-11.016,21.42-23.256,26.315c-7.344,3.061-15.3,3.061-23.256,2.448c-5.508-0.612-11.016-1.836-15.912-4.284
		c-7.344-3.672-12.852-9.792-17.136-17.136c-4.896-7.956-7.956-16.523-11.628-25.092c-3.672-9.18-8.568-18.36-14.688-26.316
		c-3.672-4.896-8.568-7.956-14.076-9.792c-6.732-1.836-12.852-2.447-19.584-3.06c-9.18-0.612-16.524-4.896-21.42-12.853
		s-6.12-16.523-7.344-25.092c-0.612-9.18,0-18.36,1.224-27.54c0.612-6.12,5.508-11.016,12.24-11.016c48.348,0,97.308,0,145.656,0
		C-482.256,918.648-478.584,920.484-476.748,925.38L-476.748,925.38z M-484.092,927.216c-50.184,0-100.368,0-150.552,0
		c0,11.017,0,22.032,0,33.048c4.284,0,8.568,0,13.464,0c0-7.956,0-15.912,0-23.867c3.06,0,6.12,0,9.18,0c0,7.955,0,15.911,0,23.867
		c2.448,0,4.896,0,7.956,0c0-7.956,0-15.912,0-23.867c3.06,0,6.12,0,9.18,0c0,7.955,0,15.911,0,23.867c2.448,0,4.896,0,7.344,0
		c0-7.956,0-15.912,0-23.867c3.06,0,6.12,0,9.18,0c0,7.955,0,15.911,0,23.867c2.448,0,4.896,0,7.956,0c0-7.956,0-15.912,0-23.867
		c3.06,0,6.12,0,9.18,0c0,7.955,0,15.911,0,23.867c2.448,0,4.896,0,7.344,0c0-7.956,0-15.912,0-23.867c3.06,0,6.12,0,9.18,0
		c0,7.955,0,15.911,0,23.867c2.448,0,4.896,0,7.956,0c0-7.956,0-15.912,0-23.867c3.06,0,6.12,0,9.18,0c0,7.955,0,15.911,0,23.867
		c2.448,0,4.896,0,7.344,0c0-7.956,0-15.912,0-23.867c3.06,0,6.12,0,9.18,0c0,7.955,0,15.911,0,23.867c2.448,0,4.896,0,7.956,0
		c0-7.956,0-15.912,0-23.867c3.06,0,6.12,0,9.18,0c0,7.955,0,15.911,0,23.867c3.06,0,5.508,0,8.568,0
		C-484.092,949.248-484.092,938.232-484.092,927.216z"/>
</g>
</svg>
