<?xml version="1.0" encoding="utf-8"?>
<!-- Generator: Adobe Illustrator 24.0.3, SVG Export Plug-In . SVG Version: 6.00 Build 0)  -->
<svg version="1.1" id="Layer_1" xmlns="http://www.w3.org/2000/svg" xmlns:xlink="http://www.w3.org/1999/xlink" x="0px" y="0px"
	 viewBox="0 0 100 100" style="enable-background:new 0 0 100 100;" xml:space="preserve">
<style type="text/css">
	.st0{fill:#003F36;}
	.st1{fill:#F07F46;}
	.st2{fill:#DEDD0B;}
</style>
<g>
	<path class="st0" d="M66.9,30.3c-1.5-1.5-8.1,4.1-12.3,8c-0.2,0.2-2.6,2.5-4.2,2.5s-4-2.3-4.2-2.5c-4.2-3.9-10.8-9.5-12.3-8
		c-2.1,2.1,9,13.5,11,15.5c-1.8,13-1.8,30.5-1.8,30.5h7.3h7.3c0,0,0-17.6-1.8-30.5C57.9,43.8,69,32.4,66.9,30.3z"/>
</g>
<circle class="st0" cx="50.3" cy="30.8" r="5.9"/>
<g>
	<g>
		<g>
			<path class="st1" d="M-94.8,65.7l-0.8-1.1c-0.2-0.3-0.7-0.4-1-0.1l-2.5,1.9c-0.3,0.2-0.4,0.7-0.1,1l0.8,1.1
				c0.2,0.3,0.7,0.4,1,0.1l2.5-1.9C-94.6,66.4-94.5,66-94.8,65.7z"/>
		</g>
	</g>
	<g>
		<g>
			
				<rect x="-97.5" y="63.5" transform="matrix(0.791 -0.6118 0.6118 0.791 -59.3558 -46.019)" class="st1" width="0.9" height="0.7"/>
		</g>
	</g>
	<g>
		<g>
			
				<rect x="-98.7" y="64.5" transform="matrix(0.791 -0.6118 0.6118 0.791 -60.2111 -46.5833)" class="st1" width="0.9" height="0.7"/>
		</g>
	</g>
	<g>
		<g>
			
				<rect x="-100" y="65.5" transform="matrix(0.791 -0.6118 0.6118 0.791 -61.0681 -47.1488)" class="st1" width="0.9" height="0.7"/>
		</g>
	</g>
	<g>
		<g>
			
				<rect x="-94.9" y="66.9" transform="matrix(0.791 -0.6118 0.6118 0.791 -60.8891 -43.6951)" class="st1" width="0.9" height="0.7"/>
		</g>
	</g>
	<g>
		<g>
			
				<rect x="-96.1" y="67.9" transform="matrix(0.791 -0.6118 0.6118 0.791 -61.7444 -44.2594)" class="st1" width="0.9" height="0.7"/>
		</g>
	</g>
	<g>
		<g>
			
				<rect x="-97.4" y="68.9" transform="matrix(0.791 -0.6118 0.6118 0.791 -62.6014 -44.8248)" class="st1" width="0.9" height="0.7"/>
		</g>
	</g>
	<g>
		<g>
			<path class="st1" d="M-105.9,79.4c0.2-1.1,1.2-1.7,2.2-2.1c0.4-0.1,0.6-0.3,0.9-0.5c1.4-1.1,1.6-2.4,0.7-4.1l-0.8,0.6
				c-0.5,0.4-1.2,0.3-1.6-0.2l-0.8-1.1c-0.4-0.5-0.3-1.2,0.2-1.6l0.8-0.6c-1.3-1.2-2.7-1.4-4.1-0.3c-0.3,0.2-0.5,0.5-0.7,0.8
				c-0.6,0.9-1.5,1.6-2.6,1.6c-1.1,0-2.5,0.1-3.4,0.8c-2.7,2.1-2.5,4.9-0.2,7.9c2.3,3,5,3.9,7.7,1.8
				C-106.6,81.8-106.1,80.5-105.9,79.4z M-109.8,78.8l-2.2-2.9l0.7-0.6l2.2,2.9L-109.8,78.8z M-108.6,75.6c-0.6-0.8-0.5-1.9,0.3-2.5
				s1.9-0.5,2.5,0.3s0.5,1.9-0.3,2.5S-107.9,76.3-108.6,75.6z"/>
		</g>
	</g>
	<g>
		<g>
			<path class="st1" d="M-98.9,69.5c0.3-0.2,0.3-0.7,0.1-0.9l-0.6-0.7c-0.2-0.3-0.6-0.4-0.9-0.1l-4.4,3.2c-0.3,0.2-0.4,0.7-0.1,1
				l0.8,1.1c0.2,0.3,0.7,0.4,1,0.1L-98.9,69.5z"/>
		</g>
	</g>
</g>
<g>
	<g>
		<g>
			<path class="st1" d="M-73.8,98.6c-1.2-0.9-2.4-2-3.3-3.3l-0.8-1.2c-0.2-0.2-0.5-0.4-0.7-0.3c-0.3,0.1-0.5,0.3-0.5,0.6V105
				c-0.4-0.2-0.8-0.4-1.3-0.4c-1.5,0-2.7,1.2-2.7,2.7s1.2,2.7,2.7,2.7s2.7-1.2,2.7-2.7V96.7c0.9,1.2,2.1,2.2,3.2,3
				c0.5,0.4,0.8,1,0.8,1.6c0,1.1-0.9,2-2,2c-0.4,0-0.7,0.3-0.7,0.7c0,0.4,0.3,0.7,0.7,0.7c1.8,0,3.3-1.5,3.3-3.3
				C-72.5,100.2-73,99.2-73.8,98.6z"/>
		</g>
	</g>
	<g>
		<g>
			<path class="st1" d="M-61.2,99.3l-9.4,2.7c-0.3,0.1-0.5,0.3-0.5,0.6v9c-0.4-0.2-0.8-0.4-1.3-0.4c-1.5,0-2.7,1.2-2.7,2.7
				s1.2,2.7,2.7,2.7s2.7-1.2,2.7-2.7c0-0.2,0-8.2,0-8.2l8.1-2.3v5.5c-0.4-0.2-0.8-0.4-1.3-0.4c-1.5,0-2.7,1.2-2.7,2.7
				c0,1.5,1.2,2.7,2.7,2.7c1.5,0,2.7-1.2,2.7-2.7c0-0.2,0-11.3,0-11.3C-60.4,99.5-60.8,99.2-61.2,99.3z"/>
		</g>
	</g>
</g>
<g>
	<g>
		<path class="st2" d="M41.8,49c-0.9-0.9-4.9,2.5-7.4,4.8c-0.1,0.1-1.6,1.5-2.5,1.5s-2.4-1.4-2.5-1.5c-2.5-2.3-6.5-5.7-7.4-4.8
			c-1.2,1.2,5.4,8.1,6.6,9.4c-1.1,7.8-1.1,18.4-1.1,18.4h4.4h4.4c0,0,0-10.6-1.1-18.4C36.3,57.1,43,50.2,41.8,49z"/>
	</g>
	<circle class="st2" cx="31.8" cy="49.3" r="3.5"/>
</g>
<g>
	<g>
		<path class="st1" d="M76.5,49.3c-0.8-0.8-4.4,2.2-6.7,4.3c-0.1,0.1-1.4,1.4-2.3,1.4s-2.2-1.3-2.3-1.4c-2.3-2.1-5.9-5.2-6.7-4.3
			c-1.1,1.1,4.9,7.4,6,8.5c-1,7.1-1,16.6-1,16.6h4h4c0,0,0-9.6-1-16.6C71.6,56.7,77.6,50.4,76.5,49.3z"/>
	</g>
	<circle class="st1" cx="67.5" cy="49.6" r="3.2"/>
</g>
</svg>
