<?xml version="1.0" encoding="utf-8"?>
<!-- Generator: Adobe Illustrator 16.0.0, SVG Export Plug-In . SVG Version: 6.00 Build 0)  -->
<!DOCTYPE svg PUBLIC "-//W3C//DTD SVG 1.1//EN" "http://www.w3.org/Graphics/SVG/1.1/DTD/svg11.dtd">
<svg version="1.1" id="Layer_1" xmlns="http://www.w3.org/2000/svg" xmlns:xlink="http://www.w3.org/1999/xlink" x="0px" y="0px"
	 width="612px" height="792px" viewBox="0 0 612 792" enable-background="new 0 0 612 792" xml:space="preserve">
<g>
	<path fill="#DEDD0B" d="M-996.948,1011.672c1.836,0,3.06,0,4.284,0c3.06,0,4.284,1.225,4.284,4.284c0,0.612,0,1.224,0,1.224
		c0,60.588,0,120.564,0,181.152c0,4.896-0.612,5.508-5.508,5.508c-1.836,0-3.672,0-5.508,0c-2.448,0-3.672-1.224-3.672-3.672
		c0-0.612,0-1.224,0-2.448c0-74.052,0-148.104,0-221.544c0-1.224,0-1.836,0-3.06c0-1.836,1.224-3.061,3.06-3.061
		s3.06,0.612,3.672,2.448c0,1.224,0,1.836,0,3.061c0,11.016,0,22.031,0,33.048C-996.948,1009.836-996.948,1010.448-996.948,1011.672
		z"/>
	<path fill="#DEDD0B" d="M-847.008,1085.112c-16.524,4.896-25.092,15.3-23.256,29.987c1.224,10.404,10.404,23.868,29.988,23.256
		c0,15.912,1.836,31.213-8.568,45.288c-7.956,11.017-18.972,16.524-33.048,18.36c0-5.508,0.612-11.016,0.612-15.912
		c0.612-9.792,0.612-9.792-9.18-9.792s-18.972,0-28.764,0c-6.12,0-7.344,1.224-6.732,7.344c0.612,6.12,0.612,12.24,1.224,18.36
		c-7.344-0.612-14.076-2.448-20.196-6.12c-12.852-7.956-20.196-19.584-20.808-34.884c-0.612-7.344,0-14.076,0-22.032
		c8.568,0.612,15.912-1.836,22.032-7.344c4.896-4.896,7.344-10.404,7.956-17.136c0.612-11.017-5.508-25.093-22.644-28.152
		c0-11.016-1.224-21.42,0-32.437c1.836-14.688,15.3-25.092,31.212-25.704c2.448,0,4.284,0,6.732,0
		c0,5.509-0.612,10.404-0.612,15.912c-1.224,18.36-2.448,36.721-4.284,55.692c0,3.672,1.224,6.12,5.508,6.12
		c11.628,0,22.644,0,34.272,0c4.284,0,5.508-1.836,5.508-6.12c-0.612-8.567-1.836-17.748-2.448-26.315
		c-1.224-14.076-1.836-28.152-2.448-42.229c0-0.612,0-1.224,0-2.448c17.748-2.447,33.048,6.732,37.332,24.48
		c0.612,1.836,0.612,4.284,0.612,6.12C-847.008,1067.364-847.008,1076.544-847.008,1085.112z M-903.312,1135.296
		c5.508,0,11.628,0,17.136,0c3.672,0,5.508-1.836,5.508-4.284c0-3.06-1.836-4.896-5.508-4.896c-11.628,0-22.644,0-34.272,0
		c-3.672,0-5.508,1.836-5.508,4.896c0,2.448,2.448,4.284,5.508,4.284C-914.94,1135.296-909.432,1135.296-903.312,1135.296z"/>
	<path fill="#DEDD0B" d="M-907.596,951.696c2.448,0,5.508,0,8.568,0c2.448,47.735,5.508,95.472,7.956,143.208
		c-7.956,0-16.524,0-24.479,0C-913.104,1047.78-910.044,1000.044-907.596,951.696z"/>
	<path fill="#DEDD0B" d="M-892.296,1221.588c-7.344,0-14.688,0-22.644,0c-0.612-11.628-1.224-23.868-1.836-36.107
		c8.568,0,17.136,0,26.316,0C-891.072,1197.107-891.684,1209.348-892.296,1221.588z"/>
	<path fill="#DEDD0B" d="M-894.744,942.516c-6.12,0-11.628,0-17.136,0c0-10.403,0-20.195,0-30.6c5.508,0,11.628,0,17.136,0
		C-894.744,921.708-894.744,932.112-894.744,942.516z"/>
</g>
<g>
	<path fill="#DEDD0B" d="M-296.82,453.528l-0.612,0.611c-1.836,5.509-5.508,8.568-11.628,8.568c-1.224,0-2.448,0-3.06,0
		c0-12.852,0-25.092,0-37.944c2.448,0,4.896,0.612,7.344,0.612c0.612-21.42-7.344-39.168-25.092-51.408
		c-19.584-12.852-41.004-14.076-61.2-1.836c-20.196,11.628-28.764,29.988-28.152,53.244c2.448,0,4.896-0.612,7.344-0.612
		c0,12.853,0,25.704,0,37.944c-4.896,0.612-9.792,0-12.852-4.284c-1.836-1.836-2.448-4.284-2.448-7.344c0-10.404,0-21.42,0-31.824
		c0.612-18.972,7.956-34.272,22.032-46.512c9.792-8.568,21.42-14.076,34.272-15.3c18.972-2.448,36.108,2.448,50.796,14.688
		c11.016,9.18,18.36,21.42,21.42,36.108c0.612,2.448,0.612,5.508,1.224,7.956v0.611C-296.82,428.436-296.82,441.288-296.82,453.528z
		"/>
	<path fill="#DEDD0B" d="M-389.232,443.736c0,7.344,0,14.688,0,22.031c0,3.061-1.224,4.896-4.284,4.284c-1.836,0-4.284,0-6.12-0.611
		c-3.06-1.225-4.284-3.673-4.284-7.345c0-9.792,0-18.972,0-28.764c0-3.061,0-5.508,0-8.568c0-4.896,3.06-7.956,7.956-7.956
		c1.224,0,1.836,0,3.06,0c2.448,0,4.284,1.836,4.284,4.284C-389.232,428.436-389.232,436.392-389.232,443.736z"/>
	<path fill="#DEDD0B" d="M-335.376,443.736c0-7.345,0-14.688,0-22.032c0-3.061,1.224-4.284,4.284-4.284c1.224,0,1.836,0,3.06,0
		c4.284,0,7.344,3.061,7.344,7.344c0,12.853,0,25.704,0,37.944c0,4.284-3.06,7.344-7.344,7.344c-1.224,0-2.448,0-3.672,0
		c-2.448,0-4.284-1.836-4.284-4.284C-335.376,458.424-335.376,451.08-335.376,443.736z"/>
</g>
<g>
	<path fill="#003F36" d="M409.428,277.272c-9.18-9.18-49.571,25.092-75.275,48.96c-1.225,1.224-15.912,15.3-25.704,15.3
		c-9.792,0-24.48-14.076-25.704-15.3c-25.704-23.868-66.096-58.14-75.276-48.96c-12.852,12.852,55.08,82.62,67.32,94.86
		c-11.016,79.561-11.016,186.66-11.016,186.66h44.676h44.676c0,0,0-107.712-11.016-186.66
		C354.348,359.892,422.28,290.124,409.428,277.272z"/>
</g>
<circle fill="#003F36" cx="307.836" cy="278.496" r="36.108"/>
<g>
	<g>
		<g>
			<path fill="#F07F46" d="M-574.056,507.996l-7.956-10.404c-2.448-3.06-6.732-3.672-9.18-1.224l-24.48,18.972
				c-3.06,2.448-3.672,6.732-1.224,9.181l7.956,10.403c2.448,3.061,6.732,3.672,9.18,1.225l24.48-18.973
				C-572.22,515.34-571.608,511.056-574.056,507.996z"/>
		</g>
	</g>
	<g>
		<g>
			
				<rect x="-600.323" y="486.901" transform="matrix(-0.791 0.6118 -0.6118 -0.791 -767.015 1242.5447)" fill="#F07F46" width="9.18" height="6.732"/>
		</g>
	</g>
	<g>
		<g>
			
				<rect x="-613.3" y="496.465" transform="matrix(-0.791 0.6118 -0.6118 -0.791 -784.43 1267.6082)" fill="#F07F46" width="9.18" height="6.732"/>
		</g>
	</g>
	<g>
		<g>
			
				<rect x="-625.434" y="506.128" transform="matrix(-0.791 0.6118 -0.6118 -0.791 -800.2251 1292.3442)" fill="#F07F46" width="9.18" height="6.732"/>
		</g>
	</g>
	<g>
		<g>
			
				<rect x="-574.88" y="520.212" transform="matrix(-0.791 0.6118 -0.6118 -0.791 -701.0651 1286.6393)" fill="#F07F46" width="9.18" height="6.732"/>
		</g>
	</g>
	<g>
		<g>
			
				<rect x="-586.998" y="529.886" transform="matrix(-0.791 0.6118 -0.6118 -0.791 -716.8752 1311.3746)" fill="#F07F46" width="9.18" height="6.732"/>
		</g>
	</g>
	<g>
		<g>
			
				<rect x="-599.132" y="539.549" transform="matrix(-0.791 0.6118 -0.6118 -0.791 -732.6714 1336.1099)" fill="#F07F46" width="9.18" height="6.732"/>
		</g>
	</g>
	<g>
		<g>
			<path fill="#F07F46" d="M-683.604,643.86c2.448-10.404,11.628-17.137,21.42-20.809c3.672-1.224,6.12-3.06,9.18-4.896
				c14.076-11.017,15.3-23.868,6.732-39.78l-7.344,6.12c-4.896,3.672-11.628,3.06-15.912-1.836l-7.956-10.404
				c-3.672-4.896-3.06-11.628,1.836-15.912l7.956-5.508c-13.464-11.628-26.316-14.076-39.78-3.06
				c-3.06,2.447-4.896,4.283-7.344,7.956c-6.12,8.567-14.688,15.911-25.704,15.911c-11.016-0.611-24.48,1.225-33.048,7.956
				c-26.316,20.196-25.092,48.349-1.836,77.725c22.644,29.987,48.96,37.943,75.888,17.748
				C-690.948,667.116-686.052,654.264-683.604,643.86z M-722.16,637.128l-22.032-28.152l7.344-5.508l22.032,28.152L-722.16,637.128z
				 M-709.92,605.304c-6.12-7.956-4.896-18.972,3.06-25.092s18.972-4.896,25.092,3.06c6.12,7.956,4.896,18.973-3.06,25.093
				C-692.172,614.484-703.8,613.26-709.92,605.304z"/>
		</g>
	</g>
	<g>
		<g>
			<path fill="#F07F46" d="M-615.06,545.94c3.06-2.448,3.06-6.12,1.224-9.181l-5.508-7.344c-2.448-3.06-6.12-3.672-9.18-1.224
				l-43.452,31.212c-3.06,2.447-3.672,6.731-1.224,9.18l7.956,10.404c2.448,3.06,6.732,3.672,9.18,1.224L-615.06,545.94z"/>
		</g>
	</g>
</g>
<g>
	<g>
		<g>
			<path fill="#F07F46" d="M-451.656,693.432c-7.344-5.508-14.688-12.239-20.196-20.195l-4.896-7.345
				c-1.224-1.224-3.06-2.447-4.284-1.836c-1.836,0.612-3.06,1.836-3.06,3.672V732.6c-2.448-1.224-4.896-2.447-7.956-2.447
				c-9.18,0-16.524,7.344-16.524,16.523s7.344,16.524,16.524,16.524c9.18,0,16.524-7.345,16.524-16.524v-64.872
				c5.508,7.345,12.852,13.464,19.584,18.36c3.06,2.448,4.896,6.12,4.896,9.792c0,6.731-5.508,12.24-12.24,12.24
				c-2.448,0-4.284,1.836-4.284,4.283c0,2.448,1.836,4.284,4.284,4.284c11.016,0,20.196-9.18,20.196-20.195
				C-443.7,703.224-446.76,697.104-451.656,693.432z"/>
		</g>
	</g>
	<g>
		<g>
			<path fill="#F07F46" d="M-374.544,697.716l-57.528,16.524c-1.836,0.611-3.06,1.836-3.06,3.672v55.08
				c-2.448-1.225-4.896-2.448-7.956-2.448c-9.18,0-16.524,7.344-16.524,16.524c0,9.18,7.344,16.523,16.524,16.523
				c9.18,0,16.524-7.344,16.524-16.523c0-1.225,0-50.185,0-50.185l49.572-14.076v33.66c-2.448-1.224-4.896-2.448-7.956-2.448
				c-9.18,0-16.524,7.345-16.524,16.524s7.344,16.524,16.524,16.524c9.18,0,16.524-7.345,16.524-16.524c0-1.224,0-69.156,0-69.156
				C-369.648,698.94-372.096,697.104-374.544,697.716z"/>
		</g>
	</g>
</g>
<g>
	<path fill="#DEDD0B" d="M-1261.944,862.956c-1.224,1.224-3.06,2.448-4.284,3.672s-1.224,1.836,0,3.06
		c1.224,1.225,2.448,1.225,3.06,0c1.224-1.224,2.448-2.447,3.672-3.672c6.732,6.732,13.464,13.465,20.196,20.196
		c-1.224,1.224-2.448,2.448-3.672,3.672c-1.836,1.836-1.836,3.061,0,4.896c12.852,11.628,26.316,23.868,39.168,35.496
		c1.224,1.224,2.448,2.447,3.672,3.06c-11.628,11.628-27.54,16.524-42.84,11.017c-7.956-3.061-14.688-7.345-20.808-12.853
		c-0.612-0.612-1.224-1.836-1.224-2.448c-1.224-6.12-4.284-10.403-10.404-12.239c-0.612,0-1.224-1.225-1.836-1.836
		c0.612-0.612,1.224-0.612,1.836-1.225c4.284,0,6.732-3.06,6.732-7.344c0-3.061-1.224-6.12-2.448-9.18
		c-3.672-7.956-9.792-14.688-17.136-19.584c-2.448-1.836-5.508-3.061-9.18-3.061c-3.672,0-5.508,1.836-6.12,4.896
		c0,0.611-1.224,1.224-1.224,1.836c-0.612-0.612-1.224-1.225-1.224-1.836c0-6.12-3.06-10.404-8.568-13.464
		c-1.224-0.612-1.836-1.225-3.06-2.448c-9.792-11.017-11.016-26.928-3.06-40.393c0.612-1.836,1.836-3.06,3.06-5.508
		c0.612,1.225,1.224,1.836,2.448,2.448c8.568,9.18,17.748,18.36,26.316,28.152c2.448,2.447,3.06,2.447,5.508,0
		c1.224-1.225,2.448-2.448,3.06-3.061l0,0C-1273.572,851.328-1268.064,857.448-1261.944,862.956z M-1258.272,910.692
		c3.672,0,6.732-3.061,6.12-6.732c0-1.224-1.224-2.448-1.836-3.672c-3.06-4.284-6.12-8.568-9.18-12.853
		c-0.612-0.611-0.612-1.836-0.612-3.06c0.612,0,1.836,0,2.448,0c1.224,0,2.448,0,2.448-0.612c0.612-0.611,0-2.447-0.612-3.06
		c-1.224-1.836-3.672-1.836-5.508-1.225c-4.284,1.225-5.508,5.509-3.06,9.181c3.06,4.283,6.732,9.18,9.792,13.464
		c0.612,0.612,0.612,1.836,0.612,2.448c-0.612,0-1.836,0-2.448,0c-1.224,0-2.448,0-2.448,0.611c-0.612,0.612,0,2.448,0.612,3.061
		C-1260.72,910.08-1259.496,910.08-1258.272,910.692z"/>
	<path fill="#DEDD0B" d="M-1235.628,882.54c-6.732-6.732-13.464-13.464-20.196-20.196c1.224-1.224,2.448-2.448,3.672-3.672
		s1.224-2.448,0-3.672s-2.448-0.612-3.672,0.612c-1.224,1.224-2.448,2.447-3.06,3.672c-6.12-6.12-11.628-11.628-17.748-17.748
		c1.224-1.225,1.836-1.836,3.06-3.061c2.448-2.447,2.448-3.06,0-6.12c-9.18-8.567-18.972-17.747-28.152-26.315
		c-0.612-0.612-1.224-1.224-1.836-1.836c12.24-9.792,31.212-12.24,44.676-0.612c1.224,1.225,2.448,2.448,3.06,3.672
		c2.448,5.508,7.344,8.568,13.464,8.568c0.612,0,1.224,0.612,1.836,1.224c-0.612,0.612-1.224,1.225-1.836,1.225
		c-4.284,1.224-6.12,4.283-4.896,8.567c1.224,3.061,2.448,5.508,4.284,7.956c4.896,6.732,11.628,12.24,18.972,15.912
		c3.06,1.224,6.12,2.448,9.792,1.836s5.508-3.06,5.508-6.731c0-0.612,0.612-1.225,1.224-1.836c0.612,0.611,1.224,0.611,1.836,1.224
		c1.836,6.12,6.12,9.792,12.24,11.016c0.612,0,1.224,0,1.836,0.612c9.792,10.404,16.524,22.032,15.912,36.107
		c-0.612,11.017-5.508,20.196-12.852,28.152c-11.016-12.24-22.032-24.479-33.048-36.107c-1.836-2.448-4.284-4.896-6.12-6.732
		s-2.448-1.836-4.284,0C-1233.18,880.092-1234.404,881.316-1235.628,882.54z M-1236.24,853.164c-2.448,0-4.284,1.224-5.508,3.672
		c-1.224,2.448-0.612,4.284,0.612,6.12c0.612,0.612,2.448,1.224,3.06,0.612c0.612-0.612,0.612-1.836,0.612-2.448s0-1.836,0-2.448
		c0.612,0,1.836,0,2.448,0.612c3.672,2.448,7.956,5.508,11.628,8.567c1.224,0.612,2.448,1.836,3.672,2.448
		c2.448,1.224,4.896,0,6.732-1.836c1.224-1.836,1.836-4.896,0-6.731c-0.612-1.225-1.836-1.837-3.06-1.225
		c-1.224,0.612-1.836,1.836-0.612,3.061c0,0.611,0,1.224,0,2.447c-0.612,0-1.224,0-2.448,0c-0.612,0-0.612-0.611-0.612-0.611
		c-4.284-3.061-7.956-6.12-12.24-8.568C-1233.18,854.388-1234.404,853.776-1236.24,853.164z"/>
	<path fill="#DEDD0B" d="M-1276.02,836.028c-3.06,3.06-6.12,6.12-9.18,9.18c-4.284-4.896-9.18-9.792-14.076-14.688
		c-20.808-22.031-41.616-44.063-62.424-66.096c-2.448-3.06-6.12-4.896-9.18-7.344c-4.896-3.672-9.792-7.344-14.688-11.016
		c3.672-3.673,7.344-7.345,11.016-11.017c1.836,2.448,3.672,4.284,4.896,6.732c7.956,11.628,17.136,21.42,27.54,31.212
		c22.032,20.195,43.452,41.004,65.484,61.812C-1276.632,835.416-1276.632,835.416-1276.02,836.028z"/>
	<path fill="#DEDD0B" d="M-1238.688,892.332c3.06-3.06,6.12-6.12,9.18-9.18c12.852,14.076,25.092,28.151,37.944,42.228
		c-1.836,1.836-3.672,3.061-5.508,4.896C-1210.536,917.424-1224.612,905.184-1238.688,892.332z"/>
	<path fill="#DEDD0B" d="M-1356.804,736.884c-2.448,2.448-5.508,5.508-7.956,7.956c-1.224-1.224-1.836-2.448-3.06-3.672
		c2.448-2.448,5.508-4.896,7.956-7.344c-0.612-0.612-1.224-1.225-1.224-1.836c0-1.225,0-2.448,0.612-2.448
		c0.612-0.612,1.836-0.612,2.448,0c1.836,1.836,3.672,3.672,5.508,5.508c0.612,0.612,0.612,2.448,0,2.448
		c-0.612,0.612-1.836,0.612-3.06,0.612C-1355.58,738.108-1356.192,737.496-1356.804,736.884z"/>
	<path fill="#DEDD0B" d="M-1388.016,761.976c2.448-2.447,4.896-5.508,7.956-7.956c1.224,1.225,2.448,2.448,3.672,3.673
		c-2.448,2.447-5.508,4.896-7.956,7.956c0.612,0.611,1.224,1.224,1.224,1.836c0,1.224,0,2.447-0.612,2.447
		c-0.612,0.612-1.836,0.612-2.448,0c-1.836-1.836-3.672-3.672-5.508-5.508c-0.612-0.611-0.612-2.448,0-2.448
		c0.612-0.611,1.836-0.611,2.448-0.611C-1388.628,760.752-1388.628,761.364-1388.016,761.976z"/>
</g>
<g>
	<path fill="#F07F46" d="M343.775,426.473c-0.418-0.244-0.591-0.908-0.591-0.908c-1.011-1.152-1.777-2.722-2.541-4.293
		c-5.597-17.312-11.192-34.62-17.207-52.174c0,0,0,0-0.173-0.664c3.662,0.459,7.324,0.916,11.059,0.293
		c1.215,4.641,2.675,8.863,4.135,13.086c0.592,0.906,0.766,1.57,2.021,2.305c1.918,0.56,3.561-1.287,3.038-3.276
		c-0.938-2.233-1.215-4.641-2.153-6.874c-0.521-1.989-1.46-4.223-1.737-6.63c3.561-1.287,6.528-3.481,9.322-6.338
		c0.175,0.664,0.348,1.327,0.521,1.989c4.759,16.821,8.854,33.813,13.613,50.635c0.695,2.652,0.553,4.814-0.252,7.151l0,0
		c-0.489,0.837-0.979,1.674-1.712,2.928c-0.245,0.418-0.909,0.593-1.154,1.011c-3.876,2.785-7.435,4.072-11.934,3.125
		c0,0-0.418-0.244-0.663,0.174C345.868,427.696,345.031,427.206,343.775,426.473z"/>
	<path fill="#F07F46" d="M308.109,351.148c14.167-4.065,28.58-8.548,42.749-12.613c2.186,9.701-3.339,21.067-14.682,25.1
		C324.416,367.424,312.459,360.991,308.109,351.148z"/>
	<path fill="#F07F46" d="M349.051,332.987c-14.167,4.065-28.58,8.547-42.749,12.612c-2.013-9.037,3.339-21.066,15.345-25.273
		C333.825,316.782,345.538,323.633,349.051,332.987z"/>
</g>
<g>
	<path fill="#DEDD0B" d="M-476.748,925.38c0,40.393,0,80.784,0,121.176c-0.612,1.836-0.612,3.061-1.224,4.896
		c-3.672,12.24-11.016,21.42-23.256,26.315c-7.344,3.061-15.3,3.061-23.256,2.448c-5.508-0.612-11.016-1.836-15.912-4.284
		c-7.344-3.672-12.852-9.792-17.136-17.136c-4.896-7.956-7.956-16.523-11.628-25.092c-3.672-9.18-8.568-18.36-14.688-26.316
		c-3.672-4.896-8.568-7.956-14.076-9.792c-6.732-1.836-12.852-2.447-19.584-3.06c-9.18-0.612-16.524-4.896-21.42-12.853
		s-6.12-16.523-7.344-25.092c-0.612-9.18,0-18.36,1.224-27.54c0.612-6.12,5.508-11.016,12.24-11.016c48.348,0,97.308,0,145.656,0
		C-482.256,918.648-478.584,920.484-476.748,925.38L-476.748,925.38z M-484.092,927.216c-50.184,0-100.368,0-150.552,0
		c0,11.017,0,22.032,0,33.048c4.284,0,8.568,0,13.464,0c0-7.956,0-15.912,0-23.867c3.06,0,6.12,0,9.18,0c0,7.955,0,15.911,0,23.867
		c2.448,0,4.896,0,7.956,0c0-7.956,0-15.912,0-23.867c3.06,0,6.12,0,9.18,0c0,7.955,0,15.911,0,23.867c2.448,0,4.896,0,7.344,0
		c0-7.956,0-15.912,0-23.867c3.06,0,6.12,0,9.18,0c0,7.955,0,15.911,0,23.867c2.448,0,4.896,0,7.956,0c0-7.956,0-15.912,0-23.867
		c3.06,0,6.12,0,9.18,0c0,7.955,0,15.911,0,23.867c2.448,0,4.896,0,7.344,0c0-7.956,0-15.912,0-23.867c3.06,0,6.12,0,9.18,0
		c0,7.955,0,15.911,0,23.867c2.448,0,4.896,0,7.956,0c0-7.956,0-15.912,0-23.867c3.06,0,6.12,0,9.18,0c0,7.955,0,15.911,0,23.867
		c2.448,0,4.896,0,7.344,0c0-7.956,0-15.912,0-23.867c3.06,0,6.12,0,9.18,0c0,7.955,0,15.911,0,23.867c2.448,0,4.896,0,7.956,0
		c0-7.956,0-15.912,0-23.867c3.06,0,6.12,0,9.18,0c0,7.955,0,15.911,0,23.867c3.06,0,5.508,0,8.568,0
		C-484.092,949.248-484.092,938.232-484.092,927.216z"/>
</g>
</svg>
