<svg viewBox="38.5 14 203 269.5" xmlns="http://www.w3.org/2000/svg" xmlns:xlink="http://www.w3.org/1999/xlink" overflow="visible">
    <defs>
        <path d="M83,36.3476251 C83,52.6289957 105.161905,65.8276544 132.5,65.8276544 C159.838095,65.8276544 182,52.6289957 182,36.3476251 C182,34.9853134 181.844841,33.6445843 181.544472,32.3313638 C210.784239,41.4879251 232,68.792221 232,101.051724 L232,110 L32,110 L32,101.051724 C32,68.3970853 53.7386736,40.8197864 83.5337207,32.0021267 C83.1821692,33.4207025 83,34.871494 83,36.3476251 Z" id="masteravataaardefault-path-1"/>
    </defs>
    <g id="Master/Avataaar/Default" stroke="none" stroke-width="1" fill="none" fill-rule="evenodd">
        <path d="M140,36 C170.927946,36 196,61.072054 196,92 L196.000809,98.1660527 C201.675838,99.1185422 206,104.05429 206,110 L206,124 C206,130.052417 201.519235,135.058294 195.693975,135.881364 C193.627928,155.686472 181.237929,172.421678 164.001014,180.610469 L164,199 L168,199 C207.764502,199 240,231.235498 240,271 L240,280 L40,280 L40,271 C40,231.235498 72.235498,199 112,199 L116,199 L115.999984,180.610943 C98.7625487,172.422324 86.3721119,155.686854 84.3051107,135.88097 C78.480765,135.058294 74,130.052417 74,124 L74,110 C74,104.053942 78.3246685,99.1179645 84.0001873,98.1658855 L84,92 C84,61.072054 109.072054,36 140,36 Z" id="Body" fill="#eac7a8"/>
        <path d="M115.998216,180.610103 C123.272713,184.066155 131.410519,186 140,186 C148.588785,186 156.725969,184.066469 164.000016,180.610943 L164.000353,185.94579 C157.441661,190.398372 149.524652,193 141,193 C131.589035,193 122.918635,189.829263 115.998807,184.497795 Z" id="shadow" fill-opacity=".24" fill="#000"/>
        <g id="Nose" transform="translate(112.000000, 122.000000) scale(1 1)" fill="#000">
            <g id="Nose/Medium" stroke="none" stroke-width="1" fill="none" fill-rule="evenodd">
                <path d="M16,8 C16,12.418278 21.372583,16 28,16 L28,16 C34.627417,16 40,12.418278 40,8" id="Nose" fill-opacity=".16" fill="#000"/>
            </g>
        </g>
        <g id="Clothing" transform="translate(8.000000, 170.000000) scale(1 1)">
            <defs>
                <path d="M232,101.051724 L232,110 L32,110 L32,101.051724 C32,65.1384292 58.2938256,35.3663869 92.6806879,29.9363855 C93.5844961,35.0070695 96.1171239,39.8245023 100.236125,43.5389794 L100.236125,43.5389794 L129.321203,69.7676333 C130.843316,71.1402598 133.156684,71.1402598 134.678797,69.7676333 L134.678797,69.7676333 L163.763875,43.5389794 C164.189462,43.1551884 164.601167,42.7562772 164.998197,42.3430127 C168.413626,38.7879269 170.516642,34.4534098 171.319249,29.9385703 C205.706684,35.3669637 232,65.1387771 232,101.051724 Z" id="clothingshirt-v-neck-path-1"/>
            </defs>
            <g id="Clothing/Shirt V Neck" stroke="none" stroke-width="1" fill="none" fill-rule="evenodd">
                <mask id="clothingshirt-v-neck-mask-2" fill="#fff">
                    <use xlink:href="#clothingshirt-v-neck-path-1"/>
                </mask>
                <use id="Clothes" fill="#d78760" xlink:href="#clothingshirt-v-neck-path-1"/>
            </g>
        </g>
        <g id="Mouth" transform="translate(86.000000, 134.000000) scale(1 1)" fill="#000">
            <g id="Mouth/Twinkle" stroke="none" stroke-width="1" fill="none" fill-rule="evenodd">
                <path d="M40,16 C40,21.371763 46.1581544,25 54,25 C61.8418456,25 68,21.371763 68,16 C68,14.8954305 67.050301,14 66,14 C64.7072748,14 64.1302316,14.9051755 64,16 C62.7575758,18.9378973 59.6832595,20.7163149 54,21 C48.3167405,20.7163149 45.2424242,18.9378973 44,16 C43.8697684,14.9051755 43.2927252,14 42,14 C40.949699,14 40,14.8954305 40,16 Z" id="Mouth" fill-opacity=".6" fill="#000" fill-rule="nonzero"/>
            </g>
        </g>
        <g id="Eyes" transform="translate(84.000000, 90.000000) scale(1 1)" fill="#000">
            <defs>
                <path d="M14,14.0481187 C23.6099827,14.0481187 28,18.4994466 28,11.5617716 C28,4.62409673 21.7319865,0 14,0 C6.2680135,0 0,4.62409673 0,11.5617716 C0,18.4994466 4.39001726,14.0481187 14,14.0481187 Z" id="eyessquint-path-1"/>
                <path d="M14,14.0481187 C23.6099827,14.0481187 28,18.4994466 28,11.5617716 C28,4.62409673 21.7319865,0 14,0 C6.2680135,0 0,4.62409673 0,11.5617716 C0,18.4994466 4.39001726,14.0481187 14,14.0481187 Z" id="eyessquint-path-3"/>
            </defs>
            <g id="Eyes/Squint" stroke="none" stroke-width="1" fill="none" fill-rule="evenodd">
                <g id="Eye" transform="translate(16.000000, 13.000000)">
                    <mask id="eyessquint-mask-2" fill="#fff">
                        <use xlink:href="#eyessquint-path-1"/>
                    </mask>
                    <use id="The-white-stuff" fill="#FFF" xlink:href="#eyessquint-path-1"/>
                    <circle fill-opacity=".7" fill="#000" mask="url(#eyessquint-mask-2)" cx="14" cy="10" r="6"/>
                </g>
                <g id="Eye" transform="translate(68.000000, 13.000000)">
                    <mask id="eyessquint-mask-4" fill="#fff">
                        <use xlink:href="#eyessquint-path-3"/>
                    </mask>
                    <use id="Eyeball-Mask" fill="#FFF" xlink:href="#eyessquint-path-3"/>
                    <circle fill-opacity=".7" fill="#000" mask="url(#eyessquint-mask-4)" cx="14" cy="10" r="6"/>
                </g>
            </g>
        </g>
        <g id="Eyebrow/Outline" transform="translate(84.000000, 82.000000) scale(1 1)" fill="#000">
            <g id="Eyebrow/Outline/Raised Excited" stroke="none" stroke-width="1" fill="none" fill-rule="evenodd">
                <g id="I-Browse" transform="translate(12.000000, 0.000000)" fill="#000" fill-opacity=".6" fill-rule="nonzero">
                    <path d="M3.97579559,17.1279169 C5.47099148,7.60476158 18.0585488,1.10867597 27.1635167,5.30104271 C28.1668367,5.76301969 29.3546946,5.32417444 29.8166716,4.32085442 C30.2786486,3.3175344 29.8398033,2.12967649 28.8364833,1.66769952 C17.3488212,-3.62177466 1.93575948,4.3324746 0.0242044059,16.507492 C-0.147121205,17.5986938 0.598585765,18.6221744 1.68978754,18.7935 C2.78098932,18.9648257 3.80446998,18.2191187 3.97579559,17.1279169 Z" id="Eyebrow"/>
                    <path d="M61.9757956,17.1279169 C63.4709915,7.60476158 76.0585488,1.10867597 85.1635167,5.30104271 C86.1668367,5.76301969 87.3546946,5.32417444 87.8166716,4.32085442 C88.2786486,3.3175344 87.8398033,2.12967649 86.8364833,1.66769952 C75.3488212,-3.62177466 59.9357595,4.3324746 58.0242044,16.507492 C57.8528788,17.5986938 58.5985858,18.6221744 59.6897875,18.7935 C60.7809893,18.9648257 61.80447,18.2191187 61.9757956,17.1279169 Z" id="Eyebrow" transform="translate(73.000097, 9.410436) scale(-1, 1) translate(-73.000097, -9.410436)"/>
                </g>
            </g>
        </g>
        <g id="Facial Hair" transform="translate(57.000000, 72.000000) scale(1 1)" fill="#000">
            <g id="Facial Hair/Blank" stroke="none" stroke-width="1" fill="none" fill-rule="evenodd" fill-opacity="0"/>
        </g>
        <g id="Hairstyle" transform="translate(7.000000, 0.000000) scale(1 1)">
            <g id="Hairstyle/Short Flat" stroke="none" stroke-width="1" fill="none" fill-rule="evenodd">
                <path d="M180.14998,39.9204083 C177.390206,37.1003988 174.185913,34.7068297 171.069252,32.3065503 C170.381566,31.777442 169.682843,31.2610833 169.010544,30.7118441 C168.857687,30.5870323 167.291999,29.4657388 167.104691,29.0530544 C166.653816,28.0602634 166.915042,28.8332916 166.977255,27.6485857 C167.055857,26.150508 170.11064,21.9193194 167.831176,20.9490079 C166.828413,20.522232 165.039628,21.6579526 164.077671,22.0330592 C162.196235,22.7671676 160.291721,23.3932399 158.346734,23.9330847 C159.278588,22.0763407 161.055333,18.3594977 157.71591,19.3543018 C155.114345,20.1293431 152.690052,22.1219709 150.075777,23.0594018 C150.940735,21.6415124 154.399901,17.2479341 151.274209,17.0023366 C150.301549,16.925839 147.471201,18.7503735 146.423952,19.1395717 C143.287223,20.3054888 140.083264,21.0590571 136.789999,21.6525844 C125.59203,23.6707114 112.497238,23.0953019 102.1368,28.1934632 C94.1494796,32.1236942 86.262502,38.2220278 81.648386,45.987539 C77.2011742,53.472559 75.537818,61.6641751 74.6069673,70.2412987 C73.9239644,76.535909 73.8684412,83.0425652 74.1878671,89.3599905 C74.2922241,91.4297869 74.5250203,100.970847 77.5319724,98.0813859 C79.0300967,96.641688 79.019059,90.8282073 79.3963495,88.8604076 C80.1472513,84.9452748 80.870057,81.0126951 82.122006,77.2227096 C84.3282191,70.5439339 86.9307879,63.4296587 92.4269209,58.8297383 C95.9539853,55.8782066 98.4307906,51.8889248 101.806002,48.9112229 C103.322188,47.5738572 102.165231,47.7130963 104.602902,47.888571 C106.240504,48.006337 107.885464,48.0512961 109.52641,48.0942421 C113.322394,48.1928837 117.124399,48.16772 120.921387,48.1811407 C128.56821,48.208653 136.179243,48.316689 143.818708,47.9164188 C147.213653,47.7385955 150.617965,47.6423024 154.00388,47.3282597 C155.895349,47.152785 159.251496,45.9405668 160.808488,46.8669256 C162.233362,47.7144383 163.71309,50.4817719 164.736257,51.615144 C167.153525,54.2935659 170.035717,56.3392052 172.862385,58.5354911 C178.756547,63.114945 181.732392,68.8666908 183.522515,76.023241 C185.305949,83.1532854 184.805905,89.76815 187.013456,96.78479 C187.401784,98.0184813 188.428965,100.14498 189.695296,98.2389151 C189.930434,97.8849461 189.869559,95.9390277 189.869559,94.819339 C189.869559,90.2995934 191.014141,86.9083772 190.999893,82.3591197 C190.943566,68.5271489 190.49637,50.4908308 180.14998,39.9204083 Z" id="Short-Hair" fill="#2c1b18"/>
            </g>
        </g>
        <g id="Accesories" transform="translate(70.000000, 85.000000) scale(1 1)">
            <g id="Accesories/Prescription 01" stroke="none" stroke-width="1" fill="none" fill-rule="evenodd">
                <g id="Glasses" transform="translate(8.000000, 8.000000)">
                    <path d="M80.420644,2.03156667 L103.711555,2.4879 L104.418885,2.51739042 C108.716907,2.73064946 111.842183,3.56082362 114.25907,7.0052776 L115.270648,7.06122262 C117.98538,7.22356852 120.815928,7.51990231 123.241565,8.63936667 C126.626236,10.2013667 127.149293,13.7387 122.882414,14.2260333 C120.960673,14.4457 119.036739,14.0827 117.144457,13.7450333 L116.805075,13.6912775 C117.908933,23.1522104 110.598088,34.5597165 102.577413,38.0372333 C91.6003746,42.7965667 79.3375086,37.5292333 73.5337832,28.0035667 C70.9077874,23.6933472 69.3913647,17.4882292 69.0679314,12.1428905 C68.2485064,11.7454964 67.4674464,11.2201465 66.7189648,10.8553 C64.7120473,9.8773 61.3809643,9.75663333 59.2126933,10.8553 C58.4674989,11.2329059 57.6844252,11.7618811 56.860867,12.1592462 C56.5358863,17.500774 55.019749,23.6993553 52.3955746,28.0058333 C46.5921826,37.5318333 34.3293166,42.7991667 23.352278,38.0395 C15.3308758,34.5619527 8.01918948,23.1527353 9.12481053,13.6913039 L8.78716336,13.7450333 L7.91167874,13.9004644 C6.30295502,14.1806014 4.67529677,14.4119051 3.04920921,14.2260333 C-1.2176675,13.7387 -0.69461078,10.2013667 2.69005822,8.63936667 C5.41866332,7.38007813 8.65964371,7.16238412 11.6724863,7.00636982 C14.088769,3.56285878 17.2136434,2.73316872 21.5106444,2.51998225 L22.2178029,2.4905 L46.367281,2.01387049 C51.1910659,1.92297948 55.3004405,2.2797475 56.5415862,6.63986622 C58.6301126,5.82581137 61.0470363,5.38463333 62.8914864,5.38463333 C64.750063,5.38463333 67.2403142,5.83268843 69.3827667,6.65903161 C70.6884926,2.02106814 75.2241204,1.89209727 80.420644,2.03156667 Z M46.6792964,9.28413029 L45.1743719,9.26279162 C40.2545196,9.2171575 20.0180517,9.15303061 17.6158944,11.1491667 C15.2262624,13.1345 16.5340925,19.0731667 17.1565036,21.5561667 C18.2203032,25.7998333 20.6396056,30.0601667 24.1723805,32.7525 C27.160879,35.03 30.9870799,35.1875781 34.598636,34.8394006 L34.8137377,34.8154434 C34.5755438,34.8270989 36.279595,34.5883296 36.6288896,34.5222918 L36.6612747,34.5158333 C37.7297416,34.2861667 38.7985419,33.9835 39.8106684,33.5641667 C41.7165732,32.7748333 43.5084639,31.6188333 44.9776475,30.1685 C47.7666627,27.4145 48.9648125,23.7228333 49.6852359,19.9548333 C50.1572949,17.4871667 50.5553446,14.6705 50.1459601,12.1651667 C49.7671628,9.84641667 48.7581109,9.35491276 46.6792964,9.28413029 L46.6792964,9.28413029 Z M82.2432286,9.24980184 L79.6805515,9.27256667 C77.3089217,9.29523333 76.1877816,9.68923333 75.7837311,12.1625667 C75.3743466,14.6679 75.7723963,17.4845667 76.244122,19.9522333 C76.9648787,23.7202333 78.1630285,27.4119 80.9520437,30.1659 C82.4212273,31.6162333 84.213118,32.7722333 86.1190228,33.5619 C86.9624616,33.9110667 87.8452571,34.1794463 88.7344192,34.392116 L89.2684165,34.5132333 C89.5131654,34.5657289 91.2030063,34.8028032 91.1366495,34.8130415 L90.9855976,34.8019336 C94.6972751,35.192883 98.6733348,35.1001622 101.757311,32.7499 C105.290086,30.0575667 107.709388,25.7975667 108.773188,21.5539 L108.961141,20.7771479 C109.606864,17.9999642 110.480835,12.9475202 108.313797,11.1465667 C106.107164,9.3129068 88.8513244,9.2177679 82.2432286,9.24980184 L82.2432286,9.24980184 Z" id="Shape" fill-opacity=".16" fill="#000"/>
                    <path d="M80.420644,0.0315666667 L103.711555,0.4879 L104.418885,0.517390422 C108.716907,0.73064946 111.842183,1.56082362 114.25907,5.0052776 L115.270648,5.06122262 C117.98538,5.22356852 120.815928,5.51990231 123.241565,6.63936667 C126.626236,8.20136667 127.149293,11.7387 122.882414,12.2260333 C120.960673,12.4457 119.036739,12.0827 117.144457,11.7450333 L116.805075,11.6912775 C117.908933,21.1522104 110.598088,32.5597165 102.577413,36.0372333 C91.6003746,40.7965667 79.3375086,35.5292333 73.5337832,26.0035667 C70.9077874,21.6933472 69.3913647,15.4882292 69.0679314,10.1428905 C68.2485064,9.74549637 67.4674464,9.22014648 66.7189648,8.8553 C64.7120473,7.8773 61.3809643,7.75663333 59.2126933,8.8553 C58.4674989,9.2329059 57.6844252,9.7618811 56.860867,10.1592462 C56.5358863,15.500774 55.019749,21.6993553 52.3955746,26.0058333 C46.5921826,35.5318333 34.3293166,40.7991667 23.352278,36.0395 C15.3308758,32.5619527 8.01918948,21.1527353 9.12481053,11.6913039 L8.78716336,11.7450333 L7.91167874,11.9004644 C6.30295502,12.1806014 4.67529677,12.4119051 3.04920921,12.2260333 C-1.2176675,11.7387 -0.69461078,8.20136667 2.69005822,6.63936667 C5.41866332,5.38007813 8.65964371,5.16238412 11.6724863,5.00636982 C14.088769,1.56285878 17.2136434,0.733168723 21.5106444,0.519982254 L22.2178029,0.4905 L46.367281,0.0138704941 C51.1910659,-0.0770205207 55.3004405,0.279747502 56.5415862,4.63986622 C58.6301126,3.82581137 61.0470363,3.38463333 62.8914864,3.38463333 C64.750063,3.38463333 67.2403142,3.83268843 69.3827667,4.65903161 C70.6884926,0.0210681394 75.2241204,-0.10790273 80.420644,0.0315666667 Z M46.6792964,7.28413029 L45.1743719,7.26279162 C40.2545196,7.2171575 20.0180517,7.15303061 17.6158944,9.14916667 C15.2262624,11.1345 16.5340925,17.0731667 17.1565036,19.5561667 C18.2203032,23.7998333 20.6396056,28.0601667 24.1723805,30.7525 C27.160879,33.03 30.9870799,33.1875781 34.598636,32.8394006 L34.8137377,32.8154434 C34.5755438,32.8270989 36.279595,32.5883296 36.6288896,32.5222918 L36.6612747,32.5158333 C37.7297416,32.2861667 38.7985419,31.9835 39.8106684,31.5641667 C41.7165732,30.7748333 43.5084639,29.6188333 44.9776475,28.1685 C47.7666627,25.4145 48.9648125,21.7228333 49.6852359,17.9548333 C50.1572949,15.4871667 50.5553446,12.6705 50.1459601,10.1651667 C49.7671628,7.84641667 48.7581109,7.35491276 46.6792964,7.28413029 L46.6792964,7.28413029 Z M82.2432286,7.24980184 L79.6805515,7.27256667 C77.3089217,7.29523333 76.1877816,7.68923333 75.7837311,10.1625667 C75.3743466,12.6679 75.7723964,15.4845667 76.244122,17.9522333 C76.9648787,21.7202333 78.1630285,25.4119 80.9520437,28.1659 C82.4212274,29.6162333 84.213118,30.7722333 86.1190229,31.5619 C86.9624616,31.9110667 87.8452571,32.1794463 88.7344192,32.392116 L89.2684165,32.5132333 C89.5131654,32.5657289 91.2030063,32.8028032 91.1366495,32.8130415 L90.9855976,32.8019336 C94.6972751,33.192883 98.6733348,33.1001622 101.757311,30.7499 C105.290086,28.0575667 107.709388,23.7975667 108.773188,19.5539 L108.961141,18.7771479 C109.606864,15.9999642 110.480835,10.9475202 108.313797,9.14656667 C106.107164,7.3129068 88.8513244,7.2177679 82.2432286,7.24980184 L82.2432286,7.24980184 Z" id="Shape-Copy" fill="#D6EAF2"/>
                </g>
            </g>
        </g>
    </g>
</svg>
